<?xml version="1.0" encoding="UTF-8" standalone="no"?>
<svg width="450px" height="450px" viewBox="0 0 450 450" version="1.1" xmlns="http://www.w3.org/2000/svg" xmlns:xlink="http://www.w3.org/1999/xlink">
    <!-- Generator: Sketch 3.7.1 (28215) - http://www.bohemiancoding.com/sketch -->
    <title>Arrow</title>
    <desc>Created with Sketch.</desc>
    <defs></defs>
    <g id="Icons" stroke="none" stroke-width="1" fill="none" fill-rule="evenodd">
        <g id="Arrow" transform="translate(-25.000000, -25.000000)">
            <g transform="translate(25.000000, 25.000000)" id="Shape">
                <path d="M225,9.1828125 C105.998437,9.1828125 9.1828125,105.998438 9.1828125,225 C9.1828125,344.001563 105.998437,440.817187 225,440.817187 C344.001562,440.817187 440.817187,344.001563 440.817187,225 C440.817187,105.998438 344.001562,9.1828125 225,9.1828125 L225,9.1828125 Z M310.898437,213.384375 L228.24375,296.029688 C227.348437,296.929688 226.171875,297.375 225,297.375 C223.828125,297.375 222.651562,296.925 221.75625,296.029687 L139.101562,213.384375 C137.30625,211.589062 137.30625,208.682812 139.101562,206.8875 C140.896875,205.096875 143.798437,205.096875 145.59375,206.8875 L225,286.289062 L304.40625,206.892187 C306.196875,205.101562 309.103125,205.101562 310.898437,206.892187 C312.69375,208.6875 312.69375,211.59375 310.898437,213.384375 L310.898437,213.384375 Z M310.898437,160.457813 L228.24375,243.107813 C227.348437,244.003125 226.171875,244.448438 225,244.448438 C223.828125,244.448438 222.651562,244.003125 221.75625,243.107813 L139.101562,160.457813 C137.30625,158.6625 137.30625,155.75625 139.101562,153.960938 C140.896875,152.165625 143.798437,152.165625 145.59375,153.960938 L225,233.367188 L304.40625,153.965625 C306.196875,152.170312 309.103125,152.170312 310.898437,153.965625 C312.69375,155.760938 312.69375,158.667188 310.898437,160.457813 L310.898437,160.457813 Z"></path>
                <path d="M304.40625,206.892188 L225,286.289063 L145.59375,206.892188 C143.798437,205.101563 140.896875,205.101563 139.101562,206.892188 C137.30625,208.6875 137.30625,211.59375 139.101562,213.389063 L221.75625,296.034375 C222.651562,296.929688 223.828125,297.375 225,297.375 C226.171875,297.375 227.348437,296.925 228.24375,296.029688 L310.898437,213.384375 C312.69375,211.589063 312.69375,208.682813 310.898437,206.8875 C309.103125,205.101563 306.196875,205.101563 304.40625,206.892188 L304.40625,206.892188 Z" fill="#626266"></path>
                <path d="M304.40625,153.965625 L225,233.367188 L145.59375,153.965625 C143.798437,152.170313 140.896875,152.170313 139.101562,153.965625 C137.30625,155.760938 137.30625,158.667188 139.101562,160.4625 L221.75625,243.1125 C222.651562,244.007813 223.828125,244.453125 225,244.453125 C226.171875,244.453125 227.348437,244.007813 228.24375,243.1125 L310.898437,160.4625 C312.69375,158.667188 312.69375,155.760938 310.898437,153.965625 C309.103125,152.170313 306.196875,152.170313 304.40625,153.965625 L304.40625,153.965625 Z" fill="#626266"></path>
                <path d="M225,0 C100.935938,0 0,100.935938 0,225 C0,349.064062 100.935938,450 225,450 C349.064062,450 450,349.064062 450,225 C450,100.935938 349.064062,0 225,0 L225,0 Z M225,440.817187 C105.998438,440.817187 9.1828125,344.001563 9.1828125,225 C9.1828125,105.998438 105.998438,9.1828125 225,9.1828125 C344.001563,9.1828125 440.817187,105.998438 440.817187,225 C440.817187,344.001563 344.001563,440.817187 225,440.817187 L225,440.817187 Z" fill="#626266"></path>
            </g>
        </g>
    </g>
</svg>