<?xml version="1.0" encoding="UTF-8" standalone="no"?>
<svg width="402px" height="375px" viewBox="0 0 402 375" version="1.1" xmlns="http://www.w3.org/2000/svg" xmlns:xlink="http://www.w3.org/1999/xlink">
    <!-- Generator: Sketch 3.7.1 (28215) - http://www.bohemiancoding.com/sketch -->
    <title>Box</title>
    <desc>Created with Sketch.</desc>
    <defs></defs>
    <g id="Icons" stroke="none" stroke-width="1" fill="none" fill-rule="evenodd">
        <g id="Box" transform="translate(-49.000000, -63.000000)" fill="#626266">
            <g transform="translate(49.000000, 63.000000)" id="Shape">
                <path d="M401.730769,345.36875 L401.730769,29.6260139 C401.730769,13.8339028 388.826462,0.921652778 373.055692,0.921652778 L28.9443077,0.921652778 C13.1735385,0.921652778 0.269230769,13.8391389 0.269230769,29.6260139 L0.269230769,345.36875 C0.269230769,361.160861 13.1735385,374.073111 28.9443077,374.073111 L373.055692,374.073111 C388.826462,374.078347 401.730769,361.160861 401.730769,345.36875 L401.730769,345.36875 Z M251.184,115.739097 L150.821231,115.739097 C139.350154,115.739097 129.312308,105.691 129.312308,94.2082083 C129.312308,82.7306528 139.344923,72.6825556 150.821231,72.6825556 L251.184,72.6825556 C262.655077,72.6825556 272.687692,82.7306528 272.687692,94.2082083 C272.687692,105.691 262.655077,115.739097 251.184,115.739097 L251.184,115.739097 Z"></path>
            </g>
        </g>
    </g>
</svg>