<?xml version="1.0" encoding="UTF-8" standalone="no"?>
<svg width="132px" height="103px" viewBox="0 0 132 103" version="1.1" xmlns="http://www.w3.org/2000/svg" xmlns:xlink="http://www.w3.org/1999/xlink">
    <!-- Generator: Sketch 3.7.1 (28215) - http://www.bohemiancoding.com/sketch -->
    <title>Cardboard</title>
    <desc>Created with Sketch.</desc>
    <defs></defs>
    <g id="Landing-Page" stroke="none" stroke-width="1" fill="none" fill-rule="evenodd">
        <g id="Mobile-Portrait" transform="translate(0.000000, -2383.000000)" fill="#626266">
            <g id="Footer" transform="translate(0.000000, 2383.000000)">
                <g id="Background">
                    <g id="Cardboard" transform="translate(-72.000000, -11.000000)">
                        <path d="M203.711183,25.4427273 C203.777486,25.3526434 203.827014,25.2545874 203.864559,25.1525455 C203.872547,25.1318182 203.874943,25.1094965 203.881334,25.087972 C203.916483,24.9747692 203.932459,24.859972 203.932459,24.741986 C203.932459,24.7124895 203.934856,24.6853846 203.932459,24.6566853 C203.923672,24.5379021 203.902903,24.4191189 203.857369,24.3051189 C203.852576,24.2923636 203.84299,24.2827972 203.838996,24.2716364 C203.828611,24.2493147 203.81583,24.2301818 203.803847,24.2086573 C203.746331,24.0962517 203.672839,23.9958042 203.584168,23.9089091 C203.572186,23.896951 203.567393,23.881007 203.55541,23.8698462 C203.54902,23.8642657 203.54183,23.8634685 203.536238,23.8578881 C203.433189,23.7678042 203.316559,23.6992448 203.187148,23.649021 C203.155994,23.6370629 203.126437,23.6290909 203.094484,23.6195245 C203.051347,23.6067692 203.011405,23.5876364 202.96667,23.5796643 C196.738969,22.4643776 190.513664,21.3451049 184.285164,20.2242378 L182.211393,19.8511469 C182.072396,19.8136783 181.931003,19.7865734 181.781621,19.7706294 L74.4520273,0.463972028 C74.2067856,0.419328671 73.9543544,0.453608392 73.7290835,0.561230769 L0.804424754,35.4906713 C0.796436425,35.4946573 0.790844595,35.5018322 0.782856265,35.5058182 C0.691789312,35.5520559 0.611107187,35.6094545 0.537614558,35.6732308 C0.520040233,35.6891748 0.502465909,35.7043217 0.484891585,35.7218601 C0.410600123,35.7952028 0.345095823,35.8765175 0.293171683,35.9666014 C0.285183354,35.980951 0.279591523,35.9953007 0.272402027,36.0088531 C0.228466216,36.0925594 0.195714066,36.181049 0.172547912,36.2727273 C0.167754914,36.2926573 0.161364251,36.310993 0.157370086,36.3309231 C0.13660043,36.4345594 0.1310086,36.5405874 0.139795762,36.6474126 C0.139795762,36.6561818 0.137399263,36.6641538 0.138198096,36.6729231 C0.138996929,36.6864755 0.146186425,36.6976364 0.148582924,36.7111888 C0.161364251,36.8052587 0.183731572,36.8977343 0.220477887,36.9902098 C0.226069717,37.0053566 0.230063882,37.0213007 0.236454545,37.0364476 C0.238851044,37.042028 0.239649877,37.0484056 0.242845209,37.053986 C1.38198096,39.5093706 2.70564711,42.250951 4.4207414,44.8960699 L1.87965387,46.1994965 C1.44508876,46.4219161 1.19265756,46.8882797 1.24298403,47.3737762 C1.29410934,47.8584755 1.63840633,48.2626573 2.10971775,48.391007 L6.68303624,49.633049 C4.63163329,51.6483776 3.1298274,55.2078881 2.38291861,57.2726434 C2.37093612,57.3069231 2.37173495,57.3427972 2.36214896,57.3778741 C2.34537346,57.4432448 2.32939681,57.507021 2.32380498,57.573986 C2.31981081,57.6266014 2.32220731,57.6768252 2.32460381,57.7286434 C2.32700031,57.7908252 2.3317933,57.8506154 2.34457463,57.912 C2.35575829,57.9662098 2.37333262,58.0164336 2.39170577,58.0682517 C2.4044871,58.1033287 2.40768243,58.14 2.42365909,58.1742797 C3.49010104,60.4518881 4.72669441,62.986993 6.29959644,65.4591189 L3.95102764,66.8127692 C3.54202518,67.0487413 3.31276014,67.5039441 3.36708077,67.9719021 C3.42060258,68.4398601 3.74812408,68.8304895 4.19946468,68.9676084 L11.1636901,71.077007 C11.8227273,71.4764056 12.4530064,71.6661399 13.0824868,71.6581678 L30.949184,77.0703776 C30.9531781,77.071972 30.9579711,77.0743636 30.9619653,77.075958 C30.9787408,77.0815385 30.9955163,77.0871189 31.0122918,77.0919021 C31.0378544,77.1006713 31.0634171,77.1086434 31.0905774,77.1158182 C31.0961692,77.1174126 31.1025599,77.1182098 31.1089506,77.1198042 L50.1850808,82.8987273 C50.1986609,82.9027133 50.2114423,82.9011189 50.2250224,82.9051049 C50.2617687,82.9202517 50.2969174,82.9385874 50.336859,82.9513427 L70.5161775,89.0634965 C70.5433378,89.0722657 70.5704982,89.0698741 70.5976585,89.0762517 C70.6264165,89.0874126 70.6519791,89.1017622 70.6815359,89.1113287 L92.0926548,95.6021538 C92.1190163,95.6101259 92.1453778,95.6077343 92.1733369,95.6141119 C92.2052902,95.6276643 92.2348471,95.6436084 92.268398,95.653972 L139.649575,110.013986 C140.278257,110.33207 140.958064,110.551301 141.694588,110.632615 L152.387765,113.873245 C152.501998,113.906727 152.61703,113.923469 152.732062,113.923469 C153.08914,113.923469 153.435834,113.761636 153.663501,113.472252 L199.706633,54.9719161 C199.958266,54.6514406 200.026965,54.2241399 199.889566,53.8414825 C199.752167,53.4588252 199.424645,53.1734266 199.026028,53.0873287 L195.342609,52.2909231 L200.006994,46.6275944 C200.351291,46.2114545 200.682008,45.7897343 201.011926,45.364028 C201.066247,45.2938741 201.109384,45.2181399 201.14613,45.1408112 C201.15332,45.1232727 201.158113,45.1057343 201.164503,45.0881958 C201.193261,45.0188392 201.21483,44.9494825 201.229209,44.8769371 C201.2356,44.849035 201.239594,44.8211329 201.243588,44.7932308 C201.252375,44.7246713 201.25557,44.6561119 201.251576,44.5867552 C201.250777,44.5628392 201.252375,44.5389231 201.24918,44.5158042 C201.239594,44.4249231 201.219623,44.3356364 201.190066,44.2495385 C201.18767,44.243958 201.18767,44.2383776 201.186072,44.2335944 C200.527834,42.4438741 199.828056,40.8311329 199.068366,39.3148531 L202.29645,35.5863357 C202.573645,35.2666573 202.658321,34.825007 202.519324,34.4264056 C202.381126,34.0278042 202.040024,33.7328392 201.62543,33.6531189 L197.316525,32.8232308 C198.482022,31.5461119 199.645123,30.2705874 200.81062,28.9934685 C201.826736,27.8686154 202.804507,26.6736084 203.711183,25.4427273 L203.711183,25.4427273 Z M74.4088904,2.85797203 L181.406969,22.1048392 C181.442117,22.1112168 181.477266,22.116 181.513213,22.1191888 C181.55635,22.1231748 181.579517,22.127958 181.600286,22.1351329 C181.645021,22.1478881 181.688158,22.159049 181.733691,22.167021 L183.864978,22.5504755 C189.388907,23.5445874 194.911239,24.5379021 200.435169,25.5272308 L155.461674,74.7026853 L130.623562,68.3593427 C130.194589,68.1528671 129.725674,68.0197343 129.209628,67.999007 L103.696502,61.4826713 C103.688514,61.4802797 103.681324,61.4794825 103.674933,61.4778881 L58.9834266,50.0643357 C58.9738406,50.0619441 58.9634558,50.0587552 58.9530709,50.0563636 L38.6411462,44.868965 C38.613187,44.8601958 38.5852279,44.853021 38.5572687,44.8474406 L19.9748173,40.1016923 C19.8653771,40.0666154 19.7543394,40.0371189 19.6425028,40.0171888 L4.76344072,36.2169231 L74.4088904,2.85797203 L74.4088904,2.85797203 Z M142.050867,108.268909 L140.623353,107.835231 C138.81799,106.884965 137.411245,104.566699 136.036454,102.033189 C135.882279,101.74779 135.732897,101.47435 135.589906,101.218448 C135.385405,100.849343 135.182502,100.481035 134.980397,100.111133 C134.235086,98.7534965 133.461017,97.3575944 132.558335,96.0214825 L151.72074,101.53414 C149.814724,103.855594 146.615398,107.246098 143.584626,108.121427 C143.04142,108.278476 142.53496,108.315147 142.050867,108.268909 L142.050867,108.268909 Z M31.6833114,74.8214685 C31.0913762,74.6118042 29.7030046,73.140965 26.4461628,67.3644336 C26.1833467,66.8988671 25.9756502,66.5297622 25.8414463,66.3089371 C25.5914115,65.8943916 25.3461698,65.494993 25.1041235,65.1171189 L36.8909033,68.506028 C36.1200295,69.3279441 35.5049281,70.3172727 35.060777,71.0315664 C34.9593252,71.1965874 34.8690571,71.3408811 34.7907715,71.4604615 C34.7013022,71.5983776 34.5958563,71.7705734 34.4752325,71.9666853 C33.7466969,73.1593007 33.1315955,73.9732448 32.6307273,74.4268531 L32.3143894,74.6341259 C32.2536781,74.673986 32.1993575,74.7202238 32.1482322,74.7688531 C31.9948563,74.8398042 31.8542617,74.8677063 31.7328391,74.8382098 L31.6833114,74.8214685 L31.6833114,74.8214685 Z M95.0786923,92.2754266 C95.0411471,92.3089091 95.0235728,92.3559441 94.9908206,92.3926154 C94.3948913,92.9418881 93.7885771,93.3524476 93.2349859,93.3675944 C93.0680298,93.377958 92.5679604,93.3843357 91.7930924,92.5815524 C90.33682,91.0692587 89.3894042,89.2819301 88.38607,87.3893706 C88.1176622,86.8839441 87.8492543,86.3769231 87.5688639,85.8722937 L87.3987125,85.5645734 C86.808375,84.4955245 86.2004631,83.4472028 85.5725805,82.5057063 L100.244745,86.7276923 C99.0433001,87.6994825 97.9880418,88.9853706 97.1987948,89.949986 C97.0102703,90.1795804 96.8473084,90.3780839 96.7139033,90.5311469 L96.5117985,90.7655245 C96.179484,91.1473846 95.8200092,91.5595385 95.4509484,91.9421958 L95.0786923,92.2754266 L95.0786923,92.2754266 Z M72.6402743,86.2700979 C72.5340295,86.3546014 72.4509509,86.4566434 72.3822512,86.5658601 C72.1226305,86.7492168 71.8709982,86.8703916 71.6369401,86.8791608 C71.1312789,86.8711888 70.5633087,86.3896783 70.1726794,85.9607832 C68.8314389,84.485958 67.9119822,82.7823357 66.937406,80.9774685 C66.6705958,80.4824056 66.4037856,79.9881399 66.1257918,79.4962657 L65.9660252,79.2108671 C65.4164281,78.2255245 64.8508544,77.2585175 64.2701029,76.3815944 L77.8334871,80.2807133 C76.7239082,81.2596783 75.7716993,82.5471608 75.0583415,83.5141678 C74.8794029,83.7573147 74.726027,83.9653846 74.6014091,84.1208392 L74.3473802,84.4421119 C73.9711299,84.918042 73.5749088,85.4154965 73.1802853,85.8404056 L72.6402743,86.2700979 L72.6402743,86.2700979 Z M105.096856,64.5853846 C106.11377,65.4838322 107.463798,67.499958 109.135755,70.6353566 L109.674169,71.6382378 C110.471404,73.1313986 111.298196,74.5942657 112.156143,75.8418881 C106.926183,74.4196783 101.695425,72.9998601 96.4654662,71.5784476 C96.6252328,71.4357483 96.7810052,71.2882657 96.9311858,71.136 L105.096856,64.5853846 L105.096856,64.5853846 Z M42.5106929,65.4973846 C41.3947233,66.9753986 40.7979951,67.1308531 40.5847067,67.102951 C39.8130341,67.0686713 38.6283649,65.1665455 37.9213977,64.0305315 C37.3142847,63.053958 36.7383262,62.0223776 36.1815396,61.0250769 C35.4346308,59.6881678 34.6605617,58.316979 33.7770525,56.9944196 C37.9317826,58.1232587 42.0857138,59.2520979 46.239645,60.3809371 C45.1468415,61.4770909 44.1051634,63.0220699 43.1018292,64.5997343 C42.8485992,64.9967413 42.6472933,65.3172168 42.5106929,65.4973846 L42.5106929,65.4973846 Z M49.2472509,61.1996643 C49.2488486,61.1996643 49.2504463,61.1996643 49.2520439,61.2004615 C49.2712159,61.206042 49.2903879,61.2108252 49.3095599,61.2156084 C49.4078163,61.2490909 49.5236471,61.3088811 49.6586499,61.4045455 L46.9833584,63.1408531 C48.3373802,61.3854126 48.9668606,61.1358881 49.2472509,61.1996643 L49.2472509,61.1996643 Z M85.9632098,75.3643636 C85.7858689,75.5987413 85.6340906,75.802028 85.5094727,75.9558881 L85.269024,76.258028 C84.8376542,76.7977343 84.3303953,77.4331049 83.8063609,77.9520839 L83.3102856,78.3482937 C83.241586,78.4033007 83.1816735,78.4654825 83.1281517,78.5316503 C82.7910442,78.7763916 82.4571321,78.9438042 82.1447884,78.958951 C81.7381824,78.9772867 81.2788535,78.7317483 80.7851748,78.2255245 C79.3328965,76.7307692 78.3918713,74.9585874 77.3965255,73.0835664 C77.1249223,72.5725594 76.8525203,72.0615524 76.5705322,71.5545315 L76.4131622,71.2691329 C75.7948655,70.1450769 75.156598,69.040951 74.4991585,68.0603916 C79.3137245,69.3686014 84.1290894,70.676014 88.9436554,71.985021 C87.7278317,73.026965 86.6861536,74.4053287 85.9632098,75.3643636 L85.9632098,75.3643636 Z M64.2014033,69.3701958 C64.0320507,69.6197203 63.8866631,69.8341678 63.7716311,69.9912168 L63.4552933,70.4233007 C63.0462908,70.9853287 62.5861631,71.6143217 62.1308283,72.1014126 L61.4861701,72.562993 C61.3831207,72.6371329 61.3008409,72.7272168 61.2289459,72.8236783 C61.118707,72.8731049 61.0116634,72.9065874 60.9086139,72.9121678 C60.8526956,72.916951 60.7943808,72.9137622 60.736066,72.9026014 L60.5842878,72.8595524 C60.5842878,72.8595524 60.5834889,72.8587552 60.5826901,72.8587552 C60.5699088,72.8555664 60.5579263,72.8515804 60.5459438,72.8483916 C60.1800783,72.7040979 59.799035,72.3485455 59.517047,72.0424196 C58.1805995,70.5851329 57.2683323,68.8966573 56.3025433,67.1093287 C56.0317389,66.6078881 55.7601357,66.1064476 55.4813431,65.6121818 L55.338352,65.3562797 C54.7568016,64.3103497 54.1584757,63.2835524 53.5457709,62.3643776 C57.9984656,63.5745315 62.4519592,64.7846853 66.9046539,65.9948392 C65.7838913,67.0415664 64.8508544,68.4127552 64.2014033,69.3701958 L64.2014033,69.3701958 Z M71.6569109,68.1815664 C72.3239364,69.013049 73.1970608,70.334014 74.3369954,72.4067413 L74.4999573,72.7025035 C74.7755547,73.195972 75.0399684,73.6942238 75.3035832,74.1916783 C75.9194834,75.3516084 76.5521591,76.5338601 77.3190387,77.6706713 L63.8291471,73.7930769 L71.6569109,68.1815664 L71.6569109,68.1815664 Z M85.3425166,79.7537622 L93.23898,73.4407133 C94.8749899,74.8413986 96.7218916,78.4511329 97.58543,80.1412028 C97.8714122,80.7008392 98.1134585,81.1735804 98.3003854,81.5052168 L98.6662509,82.1613147 C99.0289211,82.8158182 99.406769,83.4934406 99.8117773,84.1423636 L85.1595838,79.9251608 C85.2218928,79.8701538 85.2826041,79.8111608 85.3425166,79.7537622 L85.3425166,79.7537622 Z M112.001169,78.7245734 C111.932469,78.7867552 111.893326,78.8648811 111.843799,78.9374266 C110.589631,80.024014 109.296321,81.4518042 107.983838,82.9569231 C107.466993,83.550042 106.978107,84.1104755 106.732067,84.3336923 C105.838173,85.146042 105.055317,85.5047832 104.414653,85.3963636 C103.042258,85.1707552 101.765723,82.8676364 100.74082,81.0181259 L100.366167,80.3460839 C100.190424,80.0343776 99.9651533,79.5919301 99.6975442,79.0681678 C98.809242,77.3278741 97.8841935,75.5963497 96.9032267,74.147035 C102.070877,75.5517063 107.238527,76.9547832 112.406976,78.3602517 L112.001169,78.7245734 L112.001169,78.7245734 Z M74.1197128,65.5061538 L82.5785547,59.4769091 C83.2743381,60.3434685 84.1826112,61.721035 85.3640851,63.8894266 L85.5430236,64.2170769 C85.8274082,64.7336643 86.0982125,65.2534406 86.3682181,65.7716224 C87.0008937,66.9857622 87.6495461,68.223021 88.4619592,69.4036783 C83.6809441,68.1042378 78.9007279,66.8047972 74.1197128,65.5061538 L74.1197128,65.5061538 Z M79.9511932,58.4437343 L79.7626686,58.5776643 C79.8265752,58.5298322 79.889683,58.4843916 79.9511932,58.4437343 L79.9511932,58.4437343 Z M53.2222436,59.8276783 L61.2680888,54.668979 C61.8272718,55.470965 62.4998891,56.555958 63.3146987,58.0291888 L63.5016256,58.3656084 C63.7780218,58.8614685 64.0440332,59.3605175 64.3092457,59.8587692 C64.9379272,61.0394266 65.5809877,62.2447972 66.3678381,63.3999441 C61.9862396,62.2097203 57.6038421,61.0179021 53.2222436,59.8276783 L53.2222436,59.8276783 Z M58.3651299,52.7979441 C58.4098646,52.7772168 58.4561969,52.7644615 58.4993338,52.7381538 L58.6559051,52.6393007 C58.8396367,52.5595804 59.0113857,52.5173287 59.1575722,52.5476224 L59.1599687,52.5476224 L59.2007092,52.557986 C59.2047033,52.5587832 59.2078986,52.5611748 59.2118928,52.5627692 C59.3460967,52.6034266 59.512254,52.6951049 59.7143587,52.8545455 L56.3888173,54.9870629 C57.1708747,53.8829371 57.8315095,53.1519021 58.3651299,52.7979441 L58.3651299,52.7979441 Z M33.5413968,54.480042 L41.1023504,50.0715105 C41.5353179,50.7411608 42.0313931,51.5646713 42.6017598,52.5874825 L42.7607276,52.8720839 C43.0323308,53.352 43.2935491,53.8351049 43.5539687,54.3174126 C44.1714665,55.459007 44.8033434,56.6253147 45.5630335,57.7461818 C41.5560875,56.658 37.5491416,55.569021 33.5413968,54.480042 L33.5413968,54.480042 Z M38.0667853,47.4503077 C38.1530593,47.4247972 38.2377356,47.3937063 38.3192165,47.3466713 L38.3815255,47.3115944 C38.4662018,47.2916643 38.5468839,47.2876783 38.6211754,47.3036224 L38.6259684,47.3036224 L38.6826855,47.317972 C38.8831926,47.3873287 39.2043234,47.596993 39.6964045,48.1534406 L35.7461757,50.4565594 C36.7023787,48.8206993 37.480442,47.8138322 38.0667853,47.4503077 L38.0667853,47.4503077 Z M29.3898621,55.8727552 C29.5064917,55.8799301 29.8324155,55.9397203 30.3971904,56.4913846 L27.0165295,58.493958 C27.6276367,57.5277483 28.7188424,55.8942797 29.3898621,55.8727552 L29.3898621,55.8727552 Z M31.8558593,58.3775664 C32.6594853,59.5885175 33.3720442,60.8512867 34.1125623,62.1778322 C34.6829291,63.1982517 35.2724678,64.2537483 35.9091376,65.278951 C36.036152,65.483035 36.16077,65.6775524 36.2861867,65.8728671 L24.7853891,62.5660699 L31.8558593,58.3775664 L31.8558593,58.3775664 Z M39.244265,69.5655105 C39.3033787,69.5392028 39.36409,69.5208671 39.4192095,69.484993 L39.5342414,69.4108531 C39.6564628,69.3662098 39.7706959,69.3446853 39.8721477,69.3662098 C39.8801361,69.3678042 39.8881244,69.3678042 39.8961127,69.3701958 C39.9001069,69.3717902 39.9048999,69.3741818 39.9096929,69.3757762 C39.975996,69.3949091 40.0582758,69.4331748 40.1557334,69.4937622 L37.9813102,70.9191608 C38.4717936,70.2495105 38.8911809,69.8054685 39.244265,69.5655105 L39.244265,69.5655105 Z M51.2411379,63.1974545 C51.7899361,63.9795105 52.4561628,65.0461678 53.2661794,66.5042517 L53.4147623,66.7713147 C53.6895608,67.256014 53.9531757,67.7454965 54.2175894,68.2333846 C54.8223059,69.3510629 55.4414014,70.4926573 56.1787242,71.5935944 C52.0495568,70.404965 47.9203894,69.2179301 43.7912221,68.0316923 L51.2411379,63.1974545 L51.2411379,63.1974545 Z M56.7482921,74.2171888 C55.7305789,75.196951 54.8814195,76.4764615 54.243152,77.4394825 C54.0682076,77.7017622 53.9204235,77.924979 53.8013974,78.0884056 C53.0760571,79.0817203 51.9792595,80.5844476 51.1612546,80.6187273 C50.7011268,80.6577902 50.1699029,80.145986 49.8072328,79.729049 C48.5506686,78.2861119 47.6535792,76.6518462 46.7045657,74.9203217 C46.4441462,74.4467832 46.1845255,73.9732448 45.9177153,73.5036923 L45.775523,73.2517762 C45.259477,72.3333986 44.7290519,71.4285734 44.1874432,70.6050629 C48.3741265,71.8072448 52.5608099,73.0118182 56.7482921,74.2171888 L56.7482921,74.2171888 Z M108.32494,86.0827552 C108.341715,86.066014 108.36568,86.0420979 108.384053,86.0245594 L115.783643,79.3232727 C115.831573,79.3232727 115.881899,79.3153007 115.926634,79.3224755 C117.832649,79.6325874 120.408885,84.6294545 121.378669,86.5108531 C121.59675,86.9333706 121.780482,87.2905175 121.92507,87.5496084 C122.056878,87.7871748 122.199869,88.055035 122.351647,88.3436224 C122.787011,89.1631469 123.30785,90.1373287 123.926147,91.0772308 L107.875996,86.4606294 C108.025377,86.341049 108.174759,86.2182797 108.32494,86.0827552 L108.32494,86.0827552 Z M128.616095,92.3368112 C126.901799,91.8648671 125.364046,88.9678322 124.444589,87.2371049 C124.284823,86.9341678 124.134642,86.6535524 123.996444,86.404028 C123.860643,86.1600839 123.688095,85.8252587 123.483593,85.429049 C122.629641,83.7724615 121.705391,82.0608671 120.703655,80.6131469 L137.7843,85.2536643 C136.303264,86.2461818 135.140163,87.4866294 134.013809,88.6975804 C132.839525,89.9595524 131.731543,91.1513706 130.318408,92.0067692 C129.699312,92.3814545 129.156905,92.4850909 128.616095,92.3368112 L128.616095,92.3368112 Z M120.36495,78.0708671 C120.880197,77.6698741 121.348313,77.2266294 121.7677,76.8001259 L128.740713,70.3914126 C128.795832,70.3802517 128.852549,70.3651049 128.90687,70.3603217 L129.76242,70.5787552 C130.277667,70.8888671 130.828063,71.5314126 131.575771,72.570965 C132.623041,74.0266573 133.461017,75.5732308 134.350118,77.2098881 C134.558613,77.5933427 134.76631,77.9783916 134.978,78.3618462 C135.128181,78.6328951 135.283154,78.9198881 135.442921,79.2188392 C136.010092,80.2711469 136.692296,81.5394965 137.53107,82.7345035 L120.36495,78.0708671 L120.36495,78.0708671 Z M125.155551,69.8030769 C124.027599,70.7381958 123.087372,71.7960839 122.181496,72.8332448 C121.841193,73.2230769 121.500091,73.6137063 121.148605,73.9971608 L120.964873,74.1988531 C120.741999,74.4451888 120.441638,74.7744336 120.096542,75.1228112 L119.681149,75.5046713 C119.657184,75.5261958 119.648396,75.5556923 119.626828,75.5796084 C118.686602,76.4573287 117.549862,77.2824336 116.683928,77.071972 C116.674342,77.0695804 116.664756,77.0695804 116.654371,77.0671888 C116.648779,77.0655944 116.643986,77.0624056 116.638394,77.0608112 C115.546389,76.7363497 113.905587,74.5376643 111.762318,70.5261399 L111.224703,69.5256503 C110.401905,67.9806713 109.546355,66.4691748 108.665243,65.1912587 L125.495854,69.4897762 L125.155551,69.8030769 L125.155551,69.8030769 Z M97.5406953,66.7234825 C97.3641533,66.9522797 97.2115762,67.1507832 97.0869582,67.3038462 L96.7115068,67.7718042 C96.3033031,68.2844056 95.8271987,68.8743357 95.3303246,69.3885315 L94.6313458,69.948965 C94.5410777,70.0215105 94.4691827,70.1076084 94.4060749,70.1984895 C94.0537896,70.4448252 93.703102,70.6146294 93.3675921,70.6377483 C93.2142162,70.6481119 92.7413071,70.6792028 92.024754,69.9896224 C90.4486566,68.4781259 89.4876606,66.6333986 88.4707463,64.681049 C88.1919536,64.1461259 87.9123621,63.6096084 87.6191904,63.0778741 L87.4450448,62.7597902 C86.7676345,61.516951 86.067058,60.2988252 85.3425166,59.2345594 L100.740021,63.1671608 C99.44032,64.2577343 98.3171609,65.715021 97.5406953,66.7234825 L97.5406953,66.7234825 Z M74.7627733,60.8154126 C74.5942196,61.060951 74.448832,61.2698182 74.3338001,61.4244755 L74.0605992,61.7935804 C73.5557368,62.4775804 72.9398366,63.3058741 72.3191434,63.8838462 L71.7863219,64.2649091 C71.7351966,64.3007832 71.6912607,64.343035 71.6481238,64.3852867 C71.4548062,64.4929091 71.2630863,64.5726294 71.0793547,64.5853846 C70.6903231,64.6108951 70.2621486,64.3733287 69.7828489,63.8798601 C68.3345648,62.3874965 67.3951373,60.6200979 66.4005903,58.7498601 C66.1281883,58.2372587 65.8549874,57.7246573 65.5690052,57.2128531 L65.3876701,56.8867972 C64.757391,55.7467972 64.1079398,54.6283217 63.4401155,53.6413846 L77.6609392,57.2726434 C76.466684,58.3648112 75.4593557,59.8109371 74.7627733,60.8154126 L74.7627733,60.8154126 Z M53.373223,55.2509371 C53.2078646,55.5164056 53.0680688,55.7412168 52.9562322,55.9046434 L52.8052528,56.1262657 C52.2380814,56.9593427 51.5175341,58.0132448 50.8393249,58.5465734 L50.6563922,58.662965 C50.6412144,58.6725315 50.6300307,58.6844895 50.6156517,58.6948531 C50.4455003,58.7992867 50.2777454,58.8774126 50.1195765,58.8877762 C49.705781,58.9156783 49.2009186,58.4947552 48.8670064,58.1336224 C47.5233695,56.6747413 46.6079069,54.9846713 45.6397214,53.1941538 C45.3721124,52.6990909 45.1037045,52.2032308 44.8257107,51.712951 L44.6715359,51.4387133 C44.0732101,50.3664755 43.4581087,49.3133706 42.8294272,48.3774545 L55.9670335,51.7320839 C54.9053845,52.7979441 54.028266,54.2018182 53.373223,55.2509371 L53.373223,55.2509371 Z M33.6500381,49.350042 C33.5437933,49.5333986 33.4511287,49.6928392 33.3712454,49.821986 C33.2793796,49.9718601 33.1699395,50.163986 33.0429251,50.3848112 C32.249684,51.7751329 31.585055,52.7134406 31.0458428,53.1973427 L30.6184671,53.4468671 C30.5673418,53.4771608 30.5226072,53.513035 30.4770737,53.5489091 C30.3748231,53.5784056 30.2773655,53.5895664 30.188695,53.5688392 C30.1815055,53.5664476 30.1759137,53.5624615 30.1687242,53.5608671 C29.5743925,53.3854825 28.1516711,51.9018881 24.7454475,45.8295944 C24.4738443,45.3464895 24.2605559,44.9654266 24.1255531,44.7438042 C23.8259908,44.2479441 23.5456004,43.8031049 23.2723996,43.3837762 L35.5832138,46.5271469 C34.7620135,47.4391469 34.1133612,48.5528392 33.6500381,49.350042 L33.6500381,49.350042 Z M22.098914,45.9651189 C22.2259284,46.1747832 22.4256367,46.5311329 22.6796655,46.9839441 C23.8962881,49.1531329 24.9827009,50.9890909 25.9740525,52.4208671 L14.716899,49.3643916 L21.8480805,45.5577483 C21.9311591,45.6932727 22.0110424,45.820028 22.098914,45.9651189 L22.098914,45.9651189 Z M19.1272555,42.3242937 L19.3716984,42.3864755 C19.6544853,42.5315664 20.0435169,42.9365455 20.5268108,43.5806853 L16.3744773,45.7977063 C16.3904539,45.7698042 16.4056318,45.7450909 16.4216084,45.7163916 C18.1414957,42.7404336 18.876422,42.345021 19.1272555,42.3242937 L19.1272555,42.3242937 Z M26.6035329,55.0412727 C25.986035,55.7356364 25.4052835,56.602993 24.8117506,57.5524615 C24.5960657,57.8968531 24.3787832,58.2739301 24.1559088,58.6605734 C23.671816,59.4984336 23.007187,60.6416224 22.395281,61.2315524 L21.9958646,61.4683217 C21.9367509,61.5033986 21.8840279,61.5456503 21.8329026,61.5879021 C21.8033458,61.5958741 21.7713925,61.6158042 21.7426345,61.6181958 C21.4231014,61.6564615 20.9597783,61.3176503 20.4469275,60.7165594 C19.1655995,59.213035 18.2253732,57.5301399 17.2308262,55.7491888 C16.7675031,54.9200979 16.2882033,54.0631049 15.7737549,53.2292308 L15.5988105,52.9438322 C15.3903151,52.6042238 15.1682396,52.2406993 14.9293885,51.8715944 L26.6035329,55.0412727 L26.6035329,55.0412727 Z M13.5777632,54.1763077 L13.7567018,54.4680839 C14.2455875,55.2597063 14.7113071,56.0943776 15.1626477,56.9011469 C15.8136966,58.0658601 16.490308,59.2513007 17.2659748,60.4024615 L6.59117045,57.3324336 L13.277402,53.6876224 C13.3836468,53.8598182 13.4842998,54.024042 13.5777632,54.1763077 L13.5777632,54.1763077 Z M20.8934751,63.9165315 C20.9006646,63.9061678 20.9254284,63.9181259 20.9430028,63.9205175 L21.06123,63.954 C21.214606,64.016979 21.3927457,64.1596783 21.5828679,64.3502098 L18.8844103,65.9733147 C20.1234002,64.1421399 20.6921692,63.9165315 20.8934751,63.9165315 L20.8934751,63.9165315 Z M23.0159742,66.2499441 C23.3410992,66.7497902 23.6262826,67.2217343 23.8140083,67.5318462 C23.9410227,67.7407133 24.135938,68.0866993 24.3819785,68.5235664 C25.4955516,70.499035 26.4948916,72.1811329 27.4111529,73.5276084 L16.4407804,70.2032727 L23.0159742,66.2499441 L23.0159742,66.2499441 Z M41.7645829,71.2675385 C42.2862208,72.0033566 42.9252872,73.011021 43.7089423,74.4069231 L43.8575252,74.6692028 C44.1195424,75.1283916 44.3727724,75.5923636 44.6268013,76.0547413 C45.2243283,77.1437203 45.847418,78.2534266 46.5623735,79.3288531 L34.8690571,75.7876783 L41.7645829,71.2675385 L41.7645829,71.2675385 Z M61.3631499,76.3959441 C61.9942279,77.185972 62.8194223,78.4256224 63.8978467,80.3596364 L64.0624063,80.6538042 C64.331613,81.1329231 64.5928314,81.6152308 64.8532509,82.0983357 C65.4587663,83.2207972 66.0802583,84.3671748 66.8159834,85.4713007 L54.1033563,81.6208112 L61.3631499,76.3959441 L61.3631499,76.3959441 Z M74.7899337,87.5814965 L82.0153775,81.8177203 C82.7351259,82.5112867 83.7903842,83.9255245 85.3233446,86.7053706 L85.498289,87.0202657 C85.7698922,87.5105455 86.0311106,88.0032168 86.2923289,88.4958881 C86.9082291,89.6582098 87.540106,90.8428531 88.3037902,91.9812587 L74.5518814,87.8126853 C74.6309659,87.7353566 74.7124469,87.662014 74.7899337,87.5814965 L74.7899337,87.5814965 Z M97.0701827,93.6681399 L103.705289,87.7233986 L103.722863,87.728979 C103.736443,87.732965 103.750024,87.7313706 103.765201,87.7353566 C103.769196,87.7361538 103.772391,87.7385455 103.776385,87.7401399 C104.807678,88.078951 106.394161,90.229007 108.490298,94.1321119 L109.001551,95.0775944 C109.73488,96.4408112 110.493771,97.7769231 111.279024,98.944028 L96.2865276,94.4007692 C96.5581308,94.1695804 96.8193492,93.9232448 97.0701827,93.6681399 L97.0701827,93.6681399 Z M115.838762,100.323189 C114.228315,99.7986294 111.865367,95.4028531 111.088902,93.9591189 L110.579246,93.0152308 C109.820355,91.6033846 109.035901,90.217049 108.228281,89.0212448 L124.093902,93.586028 L123.132906,94.568979 C122.43872,95.1987692 121.812435,95.870014 121.200529,96.5316923 C120.868214,96.892028 120.534302,97.2523636 120.190804,97.6047273 L120.003877,97.7960559 C119.156315,98.6673986 117.170417,100.701063 115.886692,100.338336 C115.885893,100.338336 115.884296,100.338336 115.883497,100.337538 L115.848348,100.327175 C115.845153,100.326378 115.841958,100.323986 115.838762,100.323189 L115.838762,100.323189 Z M121.702995,99.4422797 L121.885928,99.2557343 C121.974598,99.1648531 122.059274,99.0715804 122.146347,98.9791049 C122.152738,98.9727273 122.162324,98.9703357 122.168714,98.963958 L124.538053,96.5484336 C124.566012,96.5197343 124.576397,96.4822657 124.601161,96.4511748 L124.745749,96.3028951 C125.269784,95.8293566 125.820979,95.3924895 126.442471,95.0345455 C127.831641,94.234951 128.689588,94.6423217 130.263288,96.8465874 C131.250646,98.2289371 132.053473,99.6933986 132.903431,101.243958 C133.107932,101.618643 133.313232,101.991734 133.52013,102.364028 C133.659127,102.613552 133.802917,102.879021 133.953896,103.157245 C134.477931,104.124252 135.10821,105.280993 135.872693,106.395483 L119.514193,101.436881 C120.394506,100.783175 121.148605,100.01228 121.702995,99.4422797 L121.702995,99.4422797 Z M132.323479,93.4927552 C133.638357,92.5464755 134.716782,91.4168392 135.750472,90.3063357 C137.094908,88.861007 138.363454,87.4977902 140.100916,86.6304336 C140.537877,86.4127972 140.98123,86.2995944 141.431771,86.2844476 C142.008529,86.5435385 142.626027,86.7165315 143.289058,86.7795105 C144.611127,87.500979 146.026658,89.0124755 147.589975,91.3634266 C149.057431,93.5724755 150.383493,96.0629371 151.695177,99.0644056 L132.323479,93.4927552 L132.323479,93.4927552 Z M145.484251,84.1232308 C144.913085,84.3352867 144.387453,84.426965 143.880194,84.4253706 C143.296248,84.1638881 142.677951,83.9885035 142.033293,83.9271189 C140.293435,82.9609091 138.926631,80.6976503 137.528674,78.1003636 C137.362517,77.7926434 137.204348,77.4976783 137.050972,77.2202517 C136.841678,76.8423776 136.635579,76.4629091 136.430279,76.0834406 C135.623457,74.5958601 134.791073,73.062042 133.790136,71.6063497 L153.850428,76.729972 C151.917252,79.226014 148.625262,82.9601119 145.484251,84.1232308 L145.484251,84.1232308 Z M3.47013022,38.3255245 L16.3353345,41.6115944 C15.6930728,42.3689371 15.0540064,43.3510909 14.3694066,44.5365315 C13.6624395,45.761035 12.4058753,47.9334126 11.4257073,48.3965874 C11.1588971,48.2833846 10.8793056,48.1972867 10.5885304,48.1446713 C10.4343557,48.115972 10.2809797,48.100028 10.1276038,48.0920559 C9.61954607,47.7293287 8.94373342,47.0716364 8.04584521,45.9188811 C7.75187469,45.5418042 7.46908784,45.1583497 7.19508814,44.7709091 C7.15115233,44.6903916 7.09922819,44.617049 7.04171222,44.5516783 C5.62937561,42.5196084 4.47346437,40.3727413 3.47013022,38.3255245 L3.47013022,38.3255245 Z M8.76559367,50.9380699 C9.093914,50.682965 9.36391953,50.5641818 9.58439742,50.5043916 C10.0477205,50.7188392 10.5022564,50.8280559 10.9551947,50.8432028 C11.2803197,51.0743916 11.6006517,51.3821119 11.9058059,51.7416503 L5.88819748,55.0221399 C6.82363084,53.1000839 7.82297082,51.6699021 8.76559367,50.9380699 L8.76559367,50.9380699 Z M18.0983587,63.1017902 C17.4824585,63.788979 16.8753455,64.6754685 16.2426698,65.7054545 C15.5844315,66.7745035 14.267156,68.9157902 13.3045623,69.2546014 L12.1374674,68.9014406 C11.6342027,68.5363217 10.9607865,67.8746434 10.045324,66.6923916 C8.27511026,64.4068112 6.88114681,61.9051888 5.70526474,59.5374965 L18.0983587,63.1017902 L18.0983587,63.1017902 Z M7.63923925,67.4146573 C7.67758323,67.4680699 7.71672604,67.5206853 7.75586886,67.5733007 L7.50024232,67.4951748 L7.63923925,67.4146573 L7.63923925,67.4146573 Z M196.673465,54.9958322 L152.299893,111.374014 L146.259918,109.544434 C149.248352,107.939664 152.020302,104.950951 153.851227,102.666965 L193.649083,54.3421259 L196.673465,54.9958322 L196.673465,54.9958322 Z M198.72327,44.4161538 L154.078096,98.6123916 C152.642593,95.260951 151.188717,92.505021 149.564689,90.0568112 C149.24276,89.5745035 148.761862,88.8506434 148.145962,88.070979 L154.471121,89.7897483 C154.57497,89.8176503 154.678818,89.832 154.782666,89.832 C155.12217,89.832 155.45049,89.6861119 155.678957,89.4222378 L197.381231,41.2592308 C197.849347,42.2549371 198.295096,43.2968811 198.72327,44.4161538 L198.72327,44.4161538 Z M199.162628,35.5847413 L196.744561,38.3773427 C196.740567,38.3829231 196.735774,38.3885035 196.730981,38.3932867 L154.373664,87.3128392 L147.944656,85.5661678 C150.080736,84.348042 152.121754,82.4060559 153.814481,80.4943636 C167.693404,65.2893147 181.569931,50.0794825 195.445658,34.8688531 L199.162628,35.5847413 L199.162628,35.5847413 Z" id="Shape"></path>
                    </g>
                </g>
            </g>
        </g>
    </g>
</svg>