<?xml version="1.0" encoding="UTF-8" standalone="no"?>
<svg width="80px" height="45px" viewBox="0 0 80 45" version="1.1" xmlns="http://www.w3.org/2000/svg" xmlns:xlink="http://www.w3.org/1999/xlink">
    <!-- Generator: Sketch 3.7.1 (28215) - http://www.bohemiancoding.com/sketch -->
    <title>Cardboard</title>
    <desc>Created with Sketch.</desc>
    <defs></defs>
    <g id="Landing-Page" stroke="none" stroke-width="1" fill="none" fill-rule="evenodd">
        <g id="Mobile-Portrait" transform="translate(-118.000000, -945.000000)" fill="#FFFFFF">
            <g id="Section-2:-Features" transform="translate(0.000000, 683.000000)">
                <g id="Sustainable" transform="translate(0.000000, 242.000000)">
                    <g id="Cardboard" transform="translate(118.000000, 20.000000)">
                        <path d="M79.9127206,9.86756172 C79.9387476,9.83200228 79.9581895,9.79329599 79.9729277,9.75301627 C79.9760635,9.74483445 79.9770042,9.73602326 79.9795129,9.72752676 C79.9933103,9.68284144 79.9995819,9.63752676 79.9995819,9.59095333 C79.9995819,9.57930998 80.0005226,9.56861068 79.9995819,9.557282 C79.9961325,9.51039389 79.9879795,9.46350578 79.9701055,9.41850578 C79.968224,9.41347081 79.9644611,9.40969459 79.9628932,9.405289 C79.9588167,9.39647781 79.9537994,9.38892536 79.9490957,9.38042886 C79.9265181,9.33605823 79.8976688,9.29640788 79.8628616,9.26210718 C79.8581579,9.2573869 79.8562764,9.25109319 79.8515727,9.2466876 C79.8490641,9.2444848 79.8462419,9.24417012 79.8440468,9.24196732 C79.8035952,9.20640788 79.7578127,9.17934494 79.7070129,9.15951977 C79.6947834,9.15479949 79.683181,9.15165263 79.6706378,9.14787641 C79.6537046,9.14284144 79.6380256,9.135289 79.6204652,9.13214214 C77.1758055,8.69189739 74.7320864,8.25007921 72.2871131,7.80763165 L71.4730627,7.66035893 C71.4185,7.64556872 71.3629966,7.63486942 71.3043574,7.62857571 L29.1725468,0.00752675896 C29.0762781,-0.0100956187 28.9771872,0.00343584986 28.888758,0.0459183673 L0.262469626,13.8338554 C0.259333839,13.8354289 0.257138788,13.838261 0.254003001,13.8398345 C0.218255026,13.8580862 0.186583575,13.8807435 0.157734332,13.9059184 C0.1508356,13.9122121 0.143936868,13.9181911 0.137038136,13.9251142 C0.107875314,13.9540652 0.0821618585,13.9861631 0.0617792412,14.0217226 C0.058643454,14.0273869 0.0564484029,14.0330512 0.0536261943,14.0384009 C0.0363793643,14.0714428 0.0235226365,14.1063729 0.0144288535,14.1425617 C0.0125473811,14.1504289 0.0100387513,14.1576666 0.00847085765,14.1655338 C0.000317810746,14.2064428 -0.00187724034,14.248296 0.00157212565,14.2904638 C0.00157212565,14.2939254 0.000631389473,14.2970722 0.0009449682,14.3005338 C0.00125854693,14.3058834 0.00408075547,14.310289 0.00502149165,14.3156386 C0.0100387513,14.3527715 0.0188189556,14.389275 0.0332435771,14.4257785 C0.0354386282,14.4317575 0.0370065218,14.4380512 0.0395151516,14.4440303 C0.0404558878,14.4462331 0.0407694665,14.4487505 0.0420237814,14.4509533 C0.489187046,15.4201841 1.008787,16.5023869 1.68204052,17.5465128 L0.684546593,18.0610233 C0.513959765,18.1488205 0.414868888,18.3329114 0.434624348,18.5245547 C0.454693386,18.7158834 0.589845817,18.8754289 0.774857266,18.9260932 L2.57009548,19.4163729 C1.76482531,20.2118974 1.1752973,21.6169673 0.882101191,22.4320023 C0.87739751,22.4455338 0.877711089,22.4596946 0.873948144,22.4735407 C0.867362991,22.4993449 0.861091416,22.5245198 0.858896365,22.5509533 C0.857328472,22.5717226 0.858269208,22.5915477 0.859209944,22.6120023 C0.86015068,22.6365477 0.862032152,22.6601491 0.867049412,22.6843799 C0.871439514,22.7057785 0.878338246,22.7256037 0.885550557,22.7460582 C0.890567817,22.7599044 0.891822131,22.7743799 0.898093706,22.7879114 C1.31672131,23.6869673 1.80214118,24.6876666 2.41957769,25.6635058 L1.49765623,26.1978414 C1.33710392,26.2909883 1.24710683,26.4706736 1.26843018,26.6553939 C1.28943996,26.8401142 1.41800724,26.99431 1.59517922,27.0484358 L4.32895856,27.8810932 C4.58766101,28.0387505 4.83507462,28.1136456 5.08217466,28.1104988 L12.0956765,30.2468974 C12.0972444,30.2475268 12.0991258,30.2484708 12.1006937,30.2491002 C12.1072789,30.251303 12.113864,30.2535058 12.1204492,30.2553939 C12.1304837,30.2588554 12.1405182,30.2620023 12.1511799,30.2648345 C12.153375,30.2654638 12.1558836,30.2657785 12.1583922,30.2664079 L19.6466522,32.5475617 C19.6519831,32.5491352 19.6570003,32.5485058 19.6623311,32.5500792 C19.6767558,32.5560582 19.6905532,32.563296 19.7062322,32.568331 L27.6275444,34.9810233 C27.6382061,34.9844848 27.6488677,34.9835407 27.6595294,34.9860582 C27.6708183,34.9904638 27.6808528,34.9961282 27.6924552,34.9999044 L36.0973058,37.5620722 C36.1076539,37.5652191 36.118002,37.564275 36.1289773,37.5667925 C36.1415204,37.5721421 36.1531228,37.5784358 36.1662931,37.5825268 L54.7655882,43.2509533 C55.0123746,43.3765128 55.2792301,43.4630512 55.5683497,43.4951491 L59.7659145,44.7743449 C59.8107563,44.7875617 59.8559116,44.7941701 59.901067,44.7941701 C60.0412367,44.7941701 60.1773298,44.730289 60.2666998,44.6160582 L78.3407504,21.5238205 C78.4395277,21.397317 78.4664955,21.2286456 78.41256,21.0775967 C78.3586244,20.9265477 78.2300571,20.8138904 78.0735814,20.7799044 L76.6276698,20.4655338 L78.458656,18.2300093 C78.5938085,18.0657435 78.7236301,17.899275 78.8531381,17.7312331 C78.8744614,17.7035407 78.8913947,17.6736456 78.9058193,17.6431212 C78.9086415,17.6361981 78.910523,17.629275 78.9130316,17.6223519 C78.9243204,17.5949743 78.9327871,17.5675967 78.9384315,17.5389603 C78.9409401,17.5279463 78.942508,17.5169324 78.9440759,17.5059184 C78.9475253,17.4788554 78.9487796,17.4517925 78.9472117,17.4244149 C78.9468981,17.4149743 78.9475253,17.4055338 78.946271,17.3964079 C78.942508,17.3605338 78.9346685,17.325289 78.9230661,17.291303 C78.9221254,17.2891002 78.9221254,17.2868974 78.9214982,17.2850093 C78.6631094,16.5785407 78.3884144,15.9419324 78.090201,15.3434009 L79.3573727,13.8716177 C79.4661845,13.7454289 79.4994238,13.5710932 79.4448611,13.4137505 C79.390612,13.2564079 79.2567139,13.1399743 79.0939665,13.1085058 L77.4025229,12.7809184 C77.8600342,12.2767925 78.3166049,11.773296 78.7741162,11.2691701 C79.1729884,10.8251491 79.5568087,10.3534358 79.9127206,9.86756172 L79.9127206,9.86756172 Z M29.1556135,0.952526759 L71.157289,8.54997431 C71.1710864,8.55249179 71.1848839,8.55437991 71.1989949,8.55563865 C71.2159282,8.55721207 71.225022,8.55910019 71.233175,8.56193235 C71.2507354,8.56696732 71.2676687,8.57137291 71.2855427,8.57451977 L72.1221707,8.7258834 C74.2905676,9.11829599 76.4583373,9.51039389 78.6267342,9.90091837 L60.9725655,29.312282 L51.2224621,26.808331 C51.0540703,26.7268275 50.8699996,26.674275 50.6674278,26.6660932 L40.6523504,24.0938554 C40.6492146,24.0929114 40.6463924,24.0925967 40.6438838,24.0919673 L23.1004083,19.5866177 C23.0966454,19.5856736 23.0925688,19.5844149 23.0884923,19.5834708 L15.115126,17.5358135 C15.1041508,17.5323519 15.0931755,17.5295198 15.0822003,17.527317 L7.78773192,15.6539953 C7.74477163,15.6401491 7.70118419,15.6285058 7.65728317,15.6206386 L1.8165658,14.1205338 L29.1556135,0.952526759 L29.1556135,0.952526759 Z M55.7082058,42.5621072 L55.1478406,42.3909184 C54.4391527,42.0158135 53.8869406,41.1007086 53.3472716,40.1006386 C53.2867509,39.9879813 53.2281117,39.8800442 53.1719811,39.7790303 C53.0917049,39.633331 53.0120559,39.4879463 52.9327205,39.3419324 C52.6401515,38.8060233 52.3362938,38.2550093 51.9819498,37.7275967 L59.5040763,39.9036456 C58.7558775,40.8200093 57.4999947,42.1583659 56.310277,42.5038904 C56.0970434,42.5658834 55.8982345,42.5803589 55.7082058,42.5621072 L55.7082058,42.5621072 Z M12.3838553,29.3591701 C12.1514935,29.2764079 11.6064937,28.6958135 10.3280332,26.4156037 C10.2248658,26.2318275 10.1433353,26.0861282 10.0906541,25.9989603 C9.99250395,25.835324 9.89623528,25.6776666 9.80122092,25.5285058 L14.428075,26.8662331 C14.1254716,27.1906736 13.8840159,27.5811981 13.7096662,27.8631561 C13.6698417,27.928296 13.6344073,27.985254 13.6036766,28.0324568 C13.5685557,28.0868974 13.5271634,28.1548694 13.479813,28.232282 C13.1938292,28.7030512 12.9523735,29.0243449 12.7557597,29.2034009 L12.6315825,29.2852191 C12.6077505,29.3009533 12.5864272,29.3192051 12.5663581,29.3384009 C12.506151,29.3664079 12.4509612,29.3774219 12.4032972,29.3657785 L12.3838553,29.3591701 L12.3838553,29.3591701 Z M37.2694631,36.2488904 C37.2547249,36.2621072 37.2478262,36.2806736 37.2349694,36.2951491 C37.0010397,36.5119673 36.7630334,36.6740303 36.5457234,36.6800093 C36.4801854,36.6841002 36.2838851,36.6866177 35.9797138,36.3697296 C35.4080598,35.7727715 35.0361554,35.067247 34.6423005,34.3201841 C34.5369381,34.1206736 34.4315756,33.9205338 34.3215095,33.7213379 L34.2547172,33.5998694 C34.0229825,33.1778764 33.7843491,32.7640652 33.5378762,32.3924219 L39.2973767,34.0589953 C38.8257543,34.4425967 38.4115168,34.9501841 38.101701,35.3309533 C38.0276964,35.4215827 37.9637264,35.4999393 37.9113587,35.5603589 L37.8320233,35.6528764 C37.7015746,35.8036107 37.5604641,35.966303 37.4155908,36.1173519 L37.2694631,36.2488904 L37.2694631,36.2488904 Z M28.4613502,33.8783659 C28.4196443,33.9117226 28.3870321,33.9520023 28.3600643,33.9951142 C28.2581512,34.0674918 28.1593739,34.115324 28.0674953,34.1187855 C27.869,34.1156386 27.6460455,33.9255687 27.4927055,33.756268 C26.9662069,33.1741002 26.6052777,32.5016177 26.2227117,31.7891701 C26.1179764,31.5937505 26.0132411,31.3986456 25.9041157,31.2044848 L25.8414,31.0918275 C25.6256578,30.7028764 25.4036441,30.3211631 25.1756723,29.9750093 L30.4999255,31.5141352 C30.0643647,31.9005687 29.6905788,32.4087855 29.410553,32.7904988 C29.3403114,32.8864778 29.2801043,32.9686107 29.231186,33.0299743 L29.131468,33.1567925 C28.9837724,33.3446596 28.8282373,33.5410233 28.6733294,33.7087505 L28.4613502,33.8783659 L28.4613502,33.8783659 Z M41.2020539,25.3186107 C41.6012396,25.673261 42.1311877,26.4691002 42.7875079,27.7067575 L42.99886,28.1026317 C43.3118116,28.6920372 43.6363656,29.2694848 43.9731491,29.7619673 C41.9201492,29.2005687 39.8668357,28.6401142 37.8138358,28.0790303 C37.8765515,28.0227016 37.9376994,27.9644848 37.9966522,27.9043799 L41.2020539,25.3186107 L41.2020539,25.3186107 Z M16.6341014,25.6786107 C16.1960319,26.2620372 15.9617886,26.3234009 15.8780631,26.3123869 C15.575146,26.2988554 15.1101088,25.5480163 14.8325916,25.0995897 C14.5942718,24.7141002 14.3681815,24.3068974 14.1496171,23.9132261 C13.856421,23.3854988 13.5525632,22.84424 13.2057452,22.3221771 C14.8366681,22.7677715 16.4672775,23.2133659 18.0978869,23.6589603 C17.6689112,24.0916526 17.2600045,24.7015128 16.8661496,25.324275 C16.7667452,25.4809883 16.6877233,25.6074918 16.6341014,25.6786107 L16.6341014,25.6786107 Z M19.2785108,23.9821421 C19.2791379,23.9821421 19.2797651,23.9821421 19.2803923,23.9824568 C19.2879181,23.9846596 19.295444,23.9865477 19.3029699,23.9884358 C19.3415401,24.0016526 19.387009,24.025254 19.4400038,24.0630163 L18.3898287,24.7484009 C18.9213446,24.0554638 19.1684447,23.9569673 19.2785108,23.9821421 L19.2785108,23.9821421 Z M33.6912162,29.5734708 C33.6216018,29.6659883 33.5620218,29.7462331 33.5131035,29.8069673 L33.4187163,29.9262331 C33.2493838,30.139275 33.0502613,30.3900792 32.8445537,30.5949393 L32.6498213,30.7513379 C32.6228535,30.7730512 32.5993351,30.7975967 32.5783253,30.8237156 C32.4459951,30.920324 32.3149192,30.9864079 32.1923099,30.9923869 C32.0326983,30.9996247 31.8523906,30.9027016 31.6585989,30.7028764 C31.0885128,30.1128414 30.7191171,29.413296 30.328398,28.6731561 C30.2217812,28.4714428 30.1148509,28.2697296 30.0041576,28.0695897 L29.9423826,27.9569324 C29.6996726,27.5132261 29.4491232,27.0773869 29.1910479,26.690324 C31.0809869,27.2067226 32.9712395,27.7228065 34.8611785,28.2395198 C34.3839116,28.6508135 33.975005,29.1949044 33.6912162,29.5734708 L33.6912162,29.5734708 Z M25.1487046,27.2073519 C25.0822259,27.3058484 25.0251545,27.3904988 24.9799992,27.4524918 L24.855822,27.6230512 C24.6952697,27.8449044 24.5146484,28.0931911 24.3359085,28.2854638 L24.0828505,28.4676666 C24.0423988,28.4969324 24.0101002,28.5324918 23.9818781,28.5705687 C23.9386042,28.5900792 23.8965847,28.603296 23.856133,28.6054988 C23.8341825,28.6073869 23.8112913,28.6061282 23.7884,28.6017226 L23.7288201,28.5847296 C23.7288201,28.5847296 23.7285065,28.5844149 23.7281929,28.5844149 C23.7231757,28.5831561 23.718472,28.5815827 23.7137683,28.580324 C23.5701492,28.5233659 23.4205722,28.3830163 23.3098789,28.2621771 C22.7852617,27.6869324 22.4271548,27.0204289 22.0480381,26.3149044 C21.9417349,26.1169673 21.8351181,25.9190303 21.7256792,25.7239254 L21.6695486,25.6229114 C21.4412633,25.2100442 21.2063928,24.8047296 20.9658779,24.4418974 C22.7137657,24.9195897 24.4619671,25.397282 26.209855,25.8749743 C25.769904,26.2881561 25.4036441,26.8294149 25.1487046,27.2073519 L25.1487046,27.2073519 Z M28.0753348,26.7381561 C28.3371731,27.0663729 28.6799146,27.5878065 29.1273914,28.4059883 L29.1913615,28.5227365 C29.2995462,28.7175268 29.4033407,28.9142051 29.5068217,29.1105687 C29.7485909,29.5684358 29.9969453,30.0351142 30.2979808,30.4838554 L25.0025769,28.9532261 L28.0753348,26.7381561 L28.0753348,26.7381561 Z M33.4475656,31.3061282 L36.5472913,28.8141352 C37.1895005,29.3670372 37.9144945,30.7919324 38.2534731,31.4590652 C38.3657343,31.6799743 38.4607487,31.8665827 38.5341261,31.9974918 L38.6777452,32.2564778 C38.8201099,32.5148345 38.9684326,32.782317 39.127417,33.0384708 L33.375756,31.3737855 C33.4002152,31.3520722 33.4240472,31.3287855 33.4475656,31.3061282 L33.4475656,31.3061282 Z M43.9123148,30.8998694 C43.8853471,30.9244149 43.8699817,30.955254 43.8505398,30.9838904 C43.3582212,31.4128065 42.8505373,31.9764079 42.3353274,32.5705338 C42.132442,32.8046596 41.9405318,33.0258834 41.8439496,33.1139953 C41.493055,33.4346596 41.1857478,33.576268 40.9342577,33.5334708 C40.3955294,33.4444149 39.8944306,32.535289 39.4921091,31.8052191 L39.3450407,31.5399393 C39.2760534,31.4168974 39.1876242,31.242247 39.0825753,31.0354988 C38.7338757,30.3485407 38.3707516,29.6650442 37.9856769,29.0929463 C40.0142177,29.6474219 42.0427585,30.201268 44.0716128,30.7560582 L43.9123148,30.8998694 L43.9123148,30.8998694 Z M29.042098,25.6820722 L32.3625832,23.3021072 C32.6357102,23.6441701 32.9922493,24.1879463 33.4560322,25.0438904 L33.5262738,25.1732261 C33.6379079,25.3771421 33.744211,25.582317 33.8502006,25.7868624 C34.098555,26.2661282 34.3531809,26.7545198 34.6720905,27.2205687 C32.7953218,26.7076317 30.9188667,26.1946946 29.042098,25.6820722 L29.042098,25.6820722 Z M31.3312227,22.894275 L31.2572182,22.9471421 C31.2823045,22.928261 31.3070772,22.910324 31.3312227,22.894275 L31.3312227,22.894275 Z M20.8388785,23.4405687 L23.9972435,21.40424 C24.2167486,21.7208135 24.4807819,22.1491002 24.8006322,22.7306386 L24.8740096,22.8634358 C24.9825078,23.0591701 25.0869295,23.2561631 25.1910377,23.4528414 C25.4378241,23.9188904 25.690255,24.3946946 25.9991301,24.8506736 C24.2791507,24.3808484 22.5588578,23.9103939 20.8388785,23.4405687 L20.8388785,23.4405687 Z M22.8576984,20.6656736 C22.8752588,20.6574918 22.8934464,20.6524568 22.9103796,20.6420722 L22.971841,20.6030512 C23.0439641,20.5715827 23.1113836,20.5549044 23.1687685,20.5668624 L23.1697092,20.5668624 L23.1857017,20.5709533 C23.1872696,20.571268 23.1885239,20.5722121 23.1900918,20.5728414 C23.2427731,20.5888904 23.3079974,20.6250792 23.3873328,20.6880163 L22.0819046,21.5297995 C22.3888982,21.0939603 22.6482278,20.8053939 22.8576984,20.6656736 L22.8576984,20.6656736 Z M13.1132394,21.3296596 L16.0812621,19.5894498 C16.2512218,19.8537855 16.4459541,20.1788554 16.6698494,20.5825967 L16.7322515,20.6949393 C16.8388683,20.8843799 16.9414085,21.0750792 17.0436352,21.2654638 C17.2860316,21.7160932 17.5340723,22.1764778 17.8322857,22.6189254 C16.2593748,22.1893799 14.6864639,21.7595198 13.1132394,21.3296596 L13.1132394,21.3296596 Z M14.8896629,18.5547645 C14.9235294,18.5446946 14.9567688,18.5324219 14.9887538,18.5138554 L15.0132129,18.5000093 C15.0464523,18.4921421 15.0781237,18.4905687 15.1072866,18.4968624 L15.109168,18.4968624 L15.1314321,18.5025268 C15.2101404,18.5299044 15.336199,18.6126666 15.5293635,18.832317 L13.9787167,19.7414428 C14.3540705,19.0957086 14.6594961,18.698261 14.8896629,18.5547645 L14.8896629,18.5547645 Z M11.4835708,21.8794149 C11.5293533,21.882247 11.6572934,21.9058484 11.8789936,22.1236107 L10.5519284,22.9141002 C10.7918161,22.5327016 11.2201647,21.8879114 11.4835708,21.8794149 L11.4835708,21.8794149 Z M12.4515883,22.8681561 C12.7670485,23.3461631 13.0467607,23.8446247 13.3374482,24.368261 C13.5613434,24.7710582 13.7927645,25.1877016 14.0426868,25.5923869 C14.0925458,25.6729463 14.1414641,25.7497296 14.1906959,25.8268275 L9.67610301,24.5215128 L12.4515883,22.8681561 L12.4515883,22.8681561 Z M15.351878,27.2844498 C15.3750828,27.2740652 15.3989148,27.2668275 15.4205517,27.2526666 L15.465707,27.2234009 C15.5136846,27.2057785 15.5585263,27.197282 15.5983508,27.2057785 C15.6014866,27.2064079 15.6046224,27.2064079 15.6077582,27.2073519 C15.6093261,27.2079813 15.6112076,27.2089254 15.613089,27.2095547 C15.6391161,27.2171072 15.6714147,27.2322121 15.7096713,27.2561282 L14.85611,27.8187855 C15.0486473,27.5544498 15.2132762,27.3791701 15.351878,27.2844498 L15.351878,27.2844498 Z M20.0612033,24.7707435 C20.2766319,25.0794498 20.5381565,25.5004988 20.8561254,26.0760582 L20.914451,26.1814778 C21.0223221,26.3728065 21.1258031,26.5660233 21.2295976,26.7586107 C21.4669767,27.1997995 21.7100002,27.6504289 21.9994334,28.0850093 C20.378545,27.6158135 18.7576565,27.147247 17.1367681,26.6789953 L20.0612033,24.7707435 L20.0612033,24.7707435 Z M22.223015,29.1206386 C21.8235157,29.5073869 21.4901815,30.0124568 21.2396321,30.3925967 C21.1709584,30.4961282 21.1129463,30.58424 21.0662231,30.6487505 C20.7814936,31.0408484 20.35095,31.6340303 20.0298454,31.6475617 C19.8492241,31.6629813 19.6406942,31.4609533 19.4983295,31.2963729 C19.0050701,30.7267925 18.6529212,30.0816876 18.2803897,29.3981911 C18.178163,29.211268 18.0762499,29.0243449 17.9715147,28.8389953 L17.9156976,28.7395547 C17.7131258,28.3770372 17.5049095,28.0198694 17.2923031,27.6947995 C18.9357692,28.1693449 20.5792353,28.6448345 22.223015,29.1206386 L22.223015,29.1206386 Z M42.4692255,33.8044149 C42.4758107,33.7978065 42.4852181,33.7883659 42.4924304,33.7814428 L45.3971101,31.1361981 C45.4159248,31.1361981 45.4356803,31.1330512 45.4532407,31.1358834 C46.2014395,31.258296 47.2127309,33.2307435 47.5934155,33.9734009 C47.6790225,34.1401841 47.7511456,34.2811631 47.8079034,34.3834358 C47.8596439,34.4772121 47.9157744,34.5829463 47.9753544,34.6968624 C48.1462548,35.0203589 48.3507081,35.4049044 48.5934181,35.7759184 L42.2929943,33.9535757 C42.3516335,33.9063729 42.4102727,33.8579114 42.4692255,33.8044149 L42.4692255,33.8044149 Z M50.4344388,36.2731212 C49.7614988,36.0868275 49.1578598,34.943261 48.7969307,34.2600792 C48.7342149,34.1404988 48.6752621,34.0297296 48.621013,33.9312331 C48.5677046,33.8349393 48.4999716,33.7027715 48.4196955,33.5463729 C48.0844798,32.8924568 47.7216692,32.2168275 47.3284415,31.6453589 L54.0333818,33.4771421 C53.4520069,33.8689254 52.9954362,34.3585757 52.5532902,34.8365827 C52.0923295,35.3347296 51.6573958,35.8051841 51.102675,36.1428414 C50.8596515,36.2907435 50.6467316,36.3316526 50.4344388,36.2731212 L50.4344388,36.2731212 Z M47.1954841,30.6418275 C47.3977424,30.4835407 47.5814995,30.3085757 47.7461284,30.1402191 L50.4833571,27.6104638 C50.504994,27.6060582 50.5272581,27.6000792 50.5485814,27.5981911 L50.8844243,27.6844149 C51.0866825,27.8068275 51.3027383,28.0604638 51.596248,28.4708135 C52.0073497,29.0454289 52.3362938,29.6559184 52.6853069,30.3019673 C52.7671509,30.453331 52.8486814,30.605324 52.9317798,30.7566876 C52.9907326,30.8636806 53.0515668,30.9769673 53.1142826,31.0949743 C53.3369235,31.5103589 53.6047197,32.0110233 53.9339774,32.4827365 L47.1954841,30.6418275 L47.1954841,30.6418275 Z M49.0760157,27.3782261 C48.6332426,27.7473519 48.2641604,28.1649393 47.9085621,28.5743449 C47.7749776,28.7282261 47.6410795,28.8824219 47.5031048,29.0337855 L47.4309817,29.1134009 C47.3434933,29.2106386 47.2255877,29.3406037 47.0901217,29.4781212 L46.9270607,29.6288554 C46.9176534,29.6373519 46.914204,29.6489953 46.9057374,29.6584358 C46.5366552,30.0049044 46.0904327,30.3306037 45.7505133,30.2475268 C45.7467504,30.2465827 45.7429874,30.2465827 45.7389109,30.2456386 C45.7367159,30.2450093 45.7348344,30.2437505 45.7326393,30.2431212 C45.3039772,30.1150442 44.6598865,29.2471421 43.8185548,27.6636456 L43.6075163,27.2687156 C43.2845302,26.6588554 42.9486874,26.0622121 42.6028101,25.5577715 L49.2096003,27.2545547 L49.0760157,27.3782261 L49.0760157,27.3782261 Z M38.2359127,26.1625967 C38.1666118,26.2529114 38.1067183,26.331268 38.0578,26.3916876 L37.910418,26.5764079 C37.7501793,26.7787505 37.5632864,27.0116177 37.3682404,27.2145897 L37.093859,27.4358135 C37.0584246,27.4644498 37.0302025,27.4984358 37.0054298,27.53431 C36.8671416,27.6315477 36.7294805,27.6985757 36.5977775,27.7077016 C36.5375703,27.7117925 36.3519317,27.7240652 36.0706516,27.4518624 C35.4519608,26.8552191 35.0747256,26.1270372 34.6755399,25.3563729 C34.5661009,25.1452191 34.4563483,24.9334358 34.3412649,24.7235407 L34.2729048,24.5979813 C34.00699,24.1073869 33.7319815,23.6265477 33.4475656,23.2064428 L39.4917955,24.7587855 C38.9816029,25.189275 38.5407112,25.7645198 38.2359127,26.1625967 L38.2359127,26.1625967 Z M29.2945289,23.8304638 C29.2283638,23.9273869 29.1712925,24.0098345 29.1261371,24.0708834 L29.0188932,24.2165827 C28.8207114,24.4865827 28.5789422,24.8135407 28.3352916,25.0416876 L28.1261346,25.1921072 C28.1060655,25.206268 28.0888187,25.2229463 28.0718854,25.2396247 C27.9959994,25.2821072 27.9207405,25.3135757 27.8486174,25.3186107 C27.6959046,25.3286806 27.5278264,25.2349044 27.3396791,25.0401142 C26.7711609,24.4510233 26.4023923,23.7533659 26.0119868,23.0151142 C25.9050564,22.8127715 25.7978125,22.6104289 25.6855513,22.4084009 L25.614369,22.2796946 C25.3669553,21.8296946 25.1120158,21.3881911 24.849864,20.9986107 L30.4321925,22.4320023 C29.9633923,22.8631212 29.5679696,23.4339603 29.2945289,23.8304638 L29.2945289,23.8304638 Z M20.8981449,21.6339603 C20.8332341,21.7387505 20.7783578,21.8274918 20.7344568,21.8920023 L20.6751904,21.9794848 C20.4525495,22.308331 20.1697015,22.7243449 19.9034732,22.9348694 L19.8316637,22.9808135 C19.8257057,22.9845897 19.8213156,22.98931 19.8156711,22.9934009 C19.7488789,23.0346247 19.6830273,23.0654638 19.6209388,23.0695547 C19.458505,23.0805687 19.2603232,22.9144149 19.1292473,22.7718624 C18.6018079,22.1959883 18.2424467,21.5288554 17.8623893,20.8220722 C17.7573404,20.6266526 17.6519779,20.4309184 17.5428525,20.2373869 L17.4823318,20.1291352 C17.2474614,19.7058834 17.0060058,19.2901841 16.7592193,18.9207435 L21.916335,20.2449393 C21.4995889,20.6656736 21.1552795,21.2198345 20.8981449,21.6339603 L20.8981449,21.6339603 Z M13.1558861,19.3046596 C13.1141802,19.3770372 13.077805,19.4399743 13.0464472,19.4909533 C13.0103856,19.5501142 12.9674253,19.6259533 12.9175663,19.7131212 C12.6061826,20.2619324 12.3452851,20.632317 12.1336195,20.823331 L11.9658549,20.9218275 C11.9457858,20.9337855 11.9282254,20.9479463 11.9103514,20.9621072 C11.8702134,20.9737505 11.8319568,20.9781561 11.7971495,20.9699743 C11.7943273,20.9690303 11.7921323,20.9674568 11.7893101,20.9668275 C11.5560075,20.8975967 10.9975238,20.3119673 9.66042407,17.9150093 C9.55380731,17.72431 9.47008179,17.5738904 9.41708698,17.4864079 C9.29949496,17.2906736 9.18942883,17.1150792 9.0821849,16.9495547 L13.9147467,18.1903589 C13.5923877,18.5503589 13.3377618,18.9899743 13.1558861,19.3046596 L13.1558861,19.3046596 Z M8.62153775,17.9685058 C8.67139677,18.051268 8.74979145,18.1919324 8.84950949,18.3706736 C9.32708989,19.2269324 9.75355696,19.9516526 10.1427082,20.5168275 L5.72375674,19.310324 L8.52307403,17.8077016 C8.55568622,17.8611981 8.58704409,17.9112331 8.62153775,17.9685058 L8.62153775,17.9685058 Z M7.45502489,16.5313379 L7.55097998,16.5558834 C7.66198685,16.6131561 7.81469969,16.7730163 8.00441482,17.027282 L6.37443259,17.9024219 C6.38070417,17.8914079 6.38666216,17.8816526 6.39293374,17.870324 C7.06806874,16.6956037 7.35656117,16.5395198 7.45502489,16.5313379 L7.45502489,16.5313379 Z M10.3898082,21.5511981 C10.1474118,21.825289 9.9194401,22.1676666 9.68645111,22.5424568 C9.60178485,22.6784009 9.51649144,22.827247 9.42900297,22.9798694 C9.23897426,23.3106037 8.97807676,23.7618624 8.73787546,23.9947296 L8.5810861,24.0881911 C8.55788127,24.1020372 8.53718507,24.1187156 8.51711603,24.1353939 C8.50551362,24.1385407 8.49297047,24.1464079 8.48168164,24.1473519 C8.35625015,24.1624568 8.17437449,24.0287156 7.97305694,23.7914428 C7.47007667,23.1979463 7.1009945,22.5336456 6.71058899,21.8306386 C6.52871333,21.5033659 6.34056609,21.1650792 6.13862139,20.8359184 L6.06994765,20.723261 C5.9881036,20.5892051 5.90092872,20.4457086 5.80716868,20.3000093 L10.3898082,21.5511981 L10.3898082,21.5511981 Z M5.27659347,21.2097645 L5.34683511,21.3249393 C5.53874529,21.6374219 5.72156168,21.9668974 5.89873366,22.2853589 C6.15430033,22.7451142 6.41990151,23.2130512 6.72438645,23.6674568 L2.53403392,22.4556037 L5.15868787,21.0168624 C5.20039384,21.0848345 5.23990476,21.1496596 5.27659347,21.2097645 L5.27659347,21.2097645 Z M8.14834745,25.0545897 C8.15116966,25.0504988 8.1608906,25.0552191 8.16778933,25.0561631 L8.21419898,25.0693799 C8.2744061,25.09424 8.34433416,25.1505687 8.41896589,25.2257785 L7.35969695,25.8664778 C7.84605756,25.1436456 8.06932561,25.0545897 8.14834745,25.0545897 L8.14834745,25.0545897 Z M8.98152613,25.9756736 C9.10915267,26.1729813 9.22110028,26.359275 9.29479128,26.4816876 C9.3446503,26.5641352 9.4211635,26.7007086 9.51774575,26.8731561 C9.9548745,27.6529463 10.3471615,28.3169324 10.7068363,28.8484358 L6.40045963,27.5361981 L8.98152613,25.9756736 L8.98152613,25.9756736 Z M16.3412189,27.956303 C16.5459858,28.2467575 16.7968487,28.6445198 17.1044695,29.1955338 L17.1627951,29.2990652 C17.2656489,29.480324 17.3650534,29.6634708 17.4647714,29.8459883 C17.6993283,30.2758484 17.9439197,30.7138904 18.2245727,31.1384009 L13.6344073,29.7405687 L16.3412189,27.956303 L16.3412189,27.956303 Z M24.0345593,29.9806736 C24.2822865,30.2925268 24.6062134,30.7818624 25.0295446,31.545289 L25.0941419,31.6614079 C25.1998179,31.8505338 25.3023581,32.0409184 25.4045848,32.2316177 C25.6422775,32.6746946 25.8862417,33.1272121 26.1750477,33.5630512 L21.1847559,32.0431212 L24.0345593,29.9806736 L24.0345593,29.9806736 Z M29.3051906,34.3960233 L32.1415102,32.1208484 C32.4240446,32.3946247 32.8382821,32.9528764 33.4400397,34.0501841 L33.5087134,34.1744848 C33.6153302,34.3680163 33.7178704,34.5624918 33.8204107,34.7569673 C34.0621799,35.2157785 34.3102206,35.6834009 34.6100019,36.1327715 L29.2117441,34.487282 C29.2427884,34.4567575 29.2747734,34.4278065 29.3051906,34.3960233 L29.3051906,34.3960233 Z M38.0512149,36.7986456 L40.6557998,34.4520372 L40.6626985,34.45424 C40.6680293,34.4558135 40.6733602,34.4551841 40.6793182,34.4567575 C40.6808861,34.4570722 40.6821404,34.4580163 40.6837083,34.4586456 C41.0885384,34.5923869 41.7113058,35.4410932 42.5341363,36.9817925 L42.7348267,37.3550093 C43.022692,37.8931212 43.3205918,38.4205338 43.6288397,38.8812331 L37.7435941,37.0878414 C37.8502109,36.9965827 37.9527511,36.8993449 38.0512149,36.7986456 L38.0512149,36.7986456 Z M45.418747,39.4256386 C44.7865723,39.2185757 43.8590065,37.4834009 43.5542079,36.9135058 L43.3541447,36.5409184 C43.0562449,35.9836107 42.7483106,35.4363729 42.4312825,34.9643449 L48.6592696,36.7662331 L48.2820344,37.15424 C48.0095345,37.4028414 47.7636888,37.6678065 47.5234875,37.9289953 C47.3930387,38.0712331 47.2619628,38.2134708 47.1271239,38.3525617 L47.0537465,38.4280862 C46.7210395,38.7720372 45.9414828,39.5747995 45.4375618,39.4316177 C45.4372482,39.4316177 45.436621,39.4316177 45.4363075,39.431303 L45.42251,39.4272121 C45.4212557,39.4268974 45.4200014,39.4259533 45.418747,39.4256386 L45.418747,39.4256386 Z M47.7207285,39.0779114 L47.792538,39.004275 C47.8273452,38.9684009 47.8605846,38.9315827 47.8947647,38.8950792 C47.8972733,38.8925617 47.9010362,38.8916177 47.9035449,38.8891002 L48.8336194,37.9356037 C48.8445946,37.924275 48.8486712,37.9094848 48.8583921,37.8972121 L48.9151498,37.8386806 C49.1208575,37.6517575 49.3372268,37.47931 49.5811911,37.3380163 C50.1265045,37.0223869 50.463288,37.1831911 51.0810381,38.053296 C51.4686214,38.5989603 51.783768,39.1770372 52.1174158,39.7891002 C52.197692,39.9370023 52.2782817,40.084275 52.3594986,40.2312331 C52.4140613,40.3297296 52.4705055,40.4345198 52.5297718,40.5443449 C52.7354795,40.9260582 52.9828931,41.3826666 53.2829879,41.8225967 L46.8615228,39.865254 C47.2070865,39.6072121 47.5031048,39.3029114 47.7207285,39.0779114 L47.7207285,39.0779114 Z M51.8897577,36.7294149 C52.4059082,36.3558834 52.8292395,35.9099743 53.2350104,35.4716177 C53.7627634,34.9010932 54.2607264,34.3629813 54.9427601,34.0206037 C55.1142877,33.9346946 55.2883239,33.8900093 55.4651823,33.8840303 C55.6915861,33.986303 55.9339825,34.0545897 56.1942528,34.0794498 C56.7132256,34.36424 57.2688871,34.9608834 57.8825607,35.8888904 C58.4586048,36.7608834 58.9791455,37.7439603 59.4940418,38.9287505 L51.8897577,36.7294149 L51.8897577,36.7294149 Z M57.0559672,33.0309184 C56.8317584,33.1146247 56.6254236,33.1508135 56.4263011,33.1501841 C56.197075,33.0469673 55.9543651,32.9777365 55.7013071,32.9535058 C55.0183326,32.5721072 54.4817994,31.6787156 53.9330366,30.6534708 C53.8678123,30.5320023 53.8057237,30.4155687 53.7455166,30.3060582 C53.6633589,30.1568974 53.5824556,30.0071072 53.5018659,29.857317 C53.1851514,29.2701142 52.8584023,28.6646596 52.4654882,28.0900442 L60.3400772,30.1125268 C59.5812167,31.0978065 58.2889587,32.5717925 57.0559672,33.0309184 L57.0559672,33.0309184 Z M1.30888184,14.9528764 L6.35906724,16.2500093 C6.10694994,16.5489603 5.85608696,16.9366526 5.58734999,17.4045897 C5.30983282,17.8879463 4.81657348,18.7454638 4.43181238,18.928296 C4.32707709,18.8836107 4.21732453,18.8496247 4.10318187,18.8288554 C4.04266118,18.8175268 3.98245406,18.8112331 3.92224695,18.8080862 C3.72281088,18.6649044 3.45752328,18.405289 3.10506079,17.950254 C2.98966381,17.8014079 2.87865695,17.6500442 2.77109944,17.4971072 C2.75385261,17.465324 2.73346999,17.4363729 2.71089233,17.4105687 C2.15648514,16.6084358 1.70273672,15.7609883 1.30888184,14.9528764 L1.30888184,14.9528764 Z M3.38759522,19.9315128 C3.51647608,19.8308135 3.62246569,19.7839254 3.70901341,19.760324 C3.89088908,19.8449743 4.06931537,19.8880862 4.24711451,19.8940652 C4.37474105,19.985324 4.50048612,20.1067925 4.62027319,20.2487156 L2.25808464,21.5436456 C2.62528533,20.7849393 3.01757232,20.2203939 3.38759522,19.9315128 L3.38759522,19.9315128 Z M7.05113549,24.7329813 C6.80936629,25.00424 6.57104646,25.3541701 6.3226921,25.7607435 C6.06430323,26.1827365 5.54721191,27.0279813 5.16934955,27.1617226 L4.71121103,27.022317 C4.51365643,26.8781911 4.24930956,26.6170023 3.88994834,26.150324 C3.19505788,25.2481212 2.647863,24.2606386 2.18627512,23.3260233 L7.05113549,24.7329813 L7.05113549,24.7329813 Z M2.94544921,26.4354289 C2.96050099,26.4565128 2.97586635,26.477282 2.99123171,26.4980512 L2.89088652,26.4672121 L2.94544921,26.4354289 L2.94544921,26.4354289 Z M77.150092,21.533261 L59.7314209,43.7878065 L57.3604521,43.0656037 C58.5335501,42.4321421 59.6216683,41.2523869 60.3403908,40.3508135 L75.9628829,21.2752191 L77.150092,21.533261 L77.150092,21.533261 Z M77.954735,17.3570722 L60.4294471,38.750324 C59.8659462,37.4273869 59.2952329,36.3395198 58.6577273,35.3731212 C58.5313551,35.1827365 58.3425807,34.8970023 58.1008115,34.58924 L60.5837279,35.2677016 C60.6244931,35.2787156 60.6652583,35.2843799 60.7060236,35.2843799 C60.8392945,35.2843799 60.9681754,35.2267925 61.0578589,35.1226317 L77.4279228,16.1109184 C77.6116799,16.5039603 77.7866568,16.915254 77.954735,17.3570722 L77.954735,17.3570722 Z M78.1272033,13.8709883 L77.1780005,14.973331 C77.1764326,14.9755338 77.1745511,14.9777365 77.1726697,14.9796247 L60.5454713,34.2899743 L58.0217897,33.6004988 C58.8602992,33.1196596 59.6614928,32.3530862 60.3259661,31.5984708 C65.7740829,25.5964778 71.221259,19.5925967 76.6681215,13.5884009 L78.1272033,13.8709883 L78.1272033,13.8709883 Z" id="Shape"></path>
                    </g>
                </g>
            </g>
        </g>
    </g>
</svg>