<?xml version="1.0" encoding="UTF-8" standalone="no"?>
<svg width="408px" height="408px" viewBox="0 0 408 408" version="1.1" xmlns="http://www.w3.org/2000/svg" xmlns:xlink="http://www.w3.org/1999/xlink">
    <!-- Generator: Sketch 3.7.1 (28215) - http://www.bohemiancoding.com/sketch -->
    <title>Goal</title>
    <desc>Created with Sketch.</desc>
    <defs></defs>
    <g id="Icons" stroke="none" stroke-width="1" fill="none" fill-rule="evenodd">
        <g id="Goal" transform="translate(-46.000000, -46.000000)" fill="#626266">
            <g transform="translate(46.000000, 46.000000)" id="Shape">
                <path d="M228,223.8 L226.8,223.8 L206.4,244.2 C213,246.6 220.8,247.8 228,247.8 C265.2,247.8 295.8,217.2 295.8,180 C295.8,142.8 265.2,112.2 228,112.2 C190.8,112.2 160.2,142.8 160.2,180 C160.2,187.8 161.4,195 163.8,201.6 L184.2,181.2 L184.2,180 C184.2,156 204,136.2 228,136.2 C252,136.2 271.8,156 271.8,180 C271.8,204 252,223.8 228,223.8 L228,223.8 Z"></path>
                <path d="M164.4,286.2 C183,297.6 204.6,304.2 228,304.2 C296.4,304.2 352.2,248.4 352.2,180 C352.2,111.6 296.4,55.8 228,55.8 C159.6,55.8 103.8,111.6 103.8,180 C103.8,203.4 110.4,225 121.8,243.6 L139.2,226.2 C132,212.4 127.8,196.8 127.8,180 C127.8,124.8 172.8,79.8 228,79.8 C283.2,79.8 328.2,124.8 328.2,180 C328.2,235.2 283.2,280.2 228,280.2 C211.2,280.2 195.6,276 181.8,268.8 L164.4,286.2 L164.4,286.2 Z"></path>
                <path d="M228,0 C129,0 48,81 48,180 C48,219 60.6,255 81.6,284.4 L99,267 C81.6,242.4 72,212.4 72,180 C72,94.2 142.2,24 228,24 C313.8,24 384,94.2 384,180 C384,265.8 313.8,336 228,336 C195.6,336 165.6,326.4 141,309.6 L123.6,327 C153,347.4 189,360 228,360 C327,360 408,279 408,180 C408,81 327,0 228,0 L228,0 Z"></path>
                <path d="M236.4,188.4 C238.8,186 240,183 240,180 C240,173.4 234.6,168 228,168 C224.4,168 221.4,169.2 219.6,171.6 L91.2,300 L36,300 L36,324 L84,324 L84,372 L108,372 L108,316.8 L236.4,188.4 L236.4,188.4 Z"></path>
                <polygon points="0 360 48 360 48 408 72 408 72 336 0 336"></polygon>
            </g>
        </g>
    </g>
</svg>