<?xml version="1.0" encoding="UTF-8" standalone="no"?>
<svg width="126px" height="39px" viewBox="0 0 126 39" version="1.1" xmlns="http://www.w3.org/2000/svg" xmlns:xlink="http://www.w3.org/1999/xlink">
    <!-- Generator: Sketch 3.7.1 (28215) - http://www.bohemiancoding.com/sketch -->
    <title>Logo</title>
    <desc>Created with Sketch.</desc>
    <defs></defs>
    <g id="Landing-Page" stroke="none" stroke-width="1" fill="none" fill-rule="evenodd">
        <g id="Mobile-Portrait" transform="translate(-96.000000, -20.000000)">
            <g id="Header">
                <g id="Logo" transform="translate(96.000000, 20.000000)">
                    <path d="M15.6681129,7.67650885 L15.6681129,8.77491543 L12.1345278,8.99778053 C13.0768218,10.1864004 13.5479618,11.49174 13.5479618,12.9138388 C13.5479618,14.580029 13.000916,15.9304719 11.9068078,16.9652079 C10.8126997,17.9999439 9.34431343,18.5173042 7.50160499,18.5173042 C6.72682985,18.5173042 6.18240143,18.4854666 5.8683034,18.4217906 C5.25057728,18.7507836 4.7794373,19.1381405 4.45486934,19.5838729 C4.13030137,20.0296053 3.96801983,20.5018624 3.96801983,21.0006582 C3.96801983,21.5525174 4.17479793,21.9557931 4.58836033,22.2104973 C5.00192274,22.4652016 5.69554548,22.5925518 6.66924937,22.5925518 L9.65316573,22.5925518 C11.5063441,22.5925518 12.9249989,22.9719493 13.9091728,23.7307557 C14.8933466,24.4895621 15.3854261,25.6118359 15.3854261,27.0976106 C15.3854261,28.9229911 14.6551591,30.3318028 13.1946033,31.3240881 C11.7340475,32.3163734 9.65317924,32.8125086 6.95193619,32.8125086 C4.80559965,32.8125086 3.14352251,32.3933142 1.9656549,31.5549127 C0.787787292,30.7165112 0.198862321,29.5491342 0.198862321,28.0527468 C0.198862321,26.864127 0.56268708,25.8771628 1.29034752,25.0918247 C2.01800795,24.3064866 3.00478446,23.7705545 4.25070664,23.4840122 C3.73767986,23.261146 3.3267411,22.9454236 3.01787804,22.5368355 C2.70901498,22.1282474 2.55458576,21.6586435 2.55458576,21.1280097 C2.55458576,19.9712279 3.28223528,18.9524262 4.73755615,18.071574 C3.74291239,17.6576796 2.96814887,17.0076629 2.41324236,16.1215043 C1.85833584,15.2353458 1.58088674,14.2191972 1.58088674,13.0730281 C1.58088674,11.3431618 2.12269771,9.95557507 3.20633591,8.91022639 C4.28997412,7.8648777 5.75312549,7.3422112 7.59583393,7.3422112 C8.7161169,7.3422112 9.58510841,7.45364264 10.2028345,7.67650885 L15.6681129,7.67650885 Z M1.84786873,27.9094764 C1.84786873,30.286716 3.59108664,31.475318 7.07757477,31.475318 C11.5587067,31.475318 13.799239,30.0267093 13.799239,27.1294485 C13.799239,26.0894062 13.4485015,25.3359174 12.7470159,24.8689596 C12.0455303,24.4020018 10.9095594,24.1685264 9.33906927,24.1685264 L6.54361079,24.1685264 C3.41310043,24.1685264 1.84786873,25.4154973 1.84786873,27.9094764 L1.84786873,27.9094764 Z M3.15136903,13.0730281 C3.15136903,14.4102254 3.55183801,15.447599 4.35278799,16.1851801 C5.15373796,16.9227611 6.22427269,17.2915461 7.56442428,17.2915461 C8.98833535,17.2915461 10.0798096,16.9254143 10.8388799,16.1931396 C11.5979501,15.4608648 11.9774795,14.3996131 11.9774795,13.0093524 C11.9774795,11.5341903 11.5874803,10.4278353 10.8074702,9.69025424 C10.0274601,8.95267319 8.93598583,8.5838882 7.53301464,8.5838882 C6.17192318,8.5838882 5.10138845,8.97920449 4.32137834,9.76984892 C3.54136824,10.5604934 3.15136903,11.6615421 3.15136903,13.0730281 L3.15136903,13.0730281 Z M33.2889243,16.3045721 C33.2889243,19.1275442 32.6136236,21.3322948 31.2630021,22.91889 C29.9123806,24.5054852 28.0487602,25.2987709 25.6720851,25.2987709 C24.1748845,25.2987709 22.8556926,24.932639 21.7144698,24.2003643 C20.5732469,23.4680896 19.6990205,22.4174503 19.0917643,21.048415 C18.4845081,19.6793797 18.1808846,18.0981145 18.1808846,16.3045721 C18.1808846,13.4816 18.8561852,11.2821557 20.2068068,9.70617318 C21.5574283,8.13019065 23.4105789,7.3422112 25.7663141,7.3422112 C28.1115794,7.3422112 29.9516427,8.14080317 31.2865593,9.73801105 C32.621476,11.3352189 33.2889243,13.5240507 33.2889243,16.3045721 L33.2889243,16.3045721 Z M19.8141862,16.3045721 C19.8141862,18.6818117 20.3298227,20.5363492 21.3611112,21.8682402 C22.3923998,23.2001312 23.8503163,23.8660666 25.7349044,23.8660666 C27.6194926,23.8660666 29.0774091,23.2001312 30.1086976,21.8682402 C31.1399861,20.5363492 31.6556227,18.6818117 31.6556227,16.3045721 C31.6556227,13.9167198 31.1347513,12.0648354 30.0929928,10.7488635 C29.0512343,9.43289153 27.588083,8.77491543 25.7034948,8.77491543 C23.8189066,8.77491543 22.366225,9.4302384 21.3454064,10.740904 C20.3245878,12.0515696 19.8141862,13.9061071 19.8141862,16.3045721 L19.8141862,16.3045721 Z M51.6007478,18.5173042 C51.6007478,20.6186142 50.8547762,22.274167 49.3628105,23.4840122 C47.8708449,24.6938574 45.7952116,25.2987709 43.1358483,25.2987709 C40.6858836,25.2987709 38.5186397,24.8318201 36.6340516,23.8979045 L36.6340516,19.313251 C38.1836018,20.0136877 39.4949414,20.5071697 40.5681097,20.793712 C41.641278,21.0802543 42.6228196,21.2235233 43.512764,21.2235233 C44.5806973,21.2235233 45.3999574,21.0165792 45.9705688,20.6026848 C46.5411802,20.1887904 46.8264816,19.5732644 46.8264816,18.7560882 C46.8264816,18.2997431 46.7008443,17.8938143 46.4495659,17.5382896 C46.1982875,17.182765 45.8292278,16.8405113 45.3423759,16.5115183 C44.8555239,16.1825253 43.8635125,15.6572057 42.3663119,14.9355436 C40.9633407,14.266945 39.9111281,13.6248876 39.2096425,13.0093524 C38.5081569,12.3938171 37.9480238,11.6774722 37.5292265,10.860296 C37.1104291,10.0431199 36.9010335,9.0879933 36.9010335,7.99488757 C36.9010335,5.93602824 37.5894214,4.31761927 38.9662178,3.13961213 C40.3430141,1.96160498 42.2458961,1.37261025 44.6749209,1.37261025 C45.8684934,1.37261025 47.0070817,1.51587924 48.0907199,1.80242152 C49.1743581,2.08896379 50.3077115,2.49223947 51.4908141,3.01226064 L49.9203318,6.84872419 C48.6953494,6.33931569 47.6823985,5.98379635 46.8814485,5.78215549 C46.0804985,5.58051462 45.2926478,5.4796957 44.5178727,5.4796957 C43.5965185,5.4796957 42.8898085,5.69725232 42.3977216,6.13237207 C41.9056347,6.56749183 41.6595949,7.13526153 41.6595949,7.83569821 C41.6595949,8.27081797 41.7590578,8.65021548 41.9579865,8.97390213 C42.1569153,9.29758878 42.473626,9.61065805 42.9081283,9.91311935 C43.3426306,10.2155806 44.3712862,10.7594722 45.994126,11.5448103 C48.1404626,12.5848526 49.6114663,13.6275325 50.4071813,14.6728812 C51.2028963,15.7182299 51.6007478,16.9996914 51.6007478,18.5173042 L51.6007478,18.5173042 Z M62.7825818,21.4304695 C63.6201765,21.4304695 64.6252751,21.2447504 65.7979078,20.8733067 L65.7979078,24.4869051 C64.6043353,25.0281517 63.1385664,25.2987709 61.4005573,25.2987709 C59.4845594,25.2987709 58.0894615,24.8079419 57.215222,23.8262693 C56.3409825,22.8445967 55.9038693,21.3721098 55.9038693,19.4087646 L55.9038693,10.8284582 L53.6109652,10.8284582 L53.6109652,8.77491543 L56.2493754,7.15118397 L57.6313998,3.3943151 L60.6938403,3.3943151 L60.6938403,7.18302184 L65.6094499,7.18302184 L65.6094499,10.8284582 L60.6938403,10.8284582 L60.6938403,19.4087646 C60.6938403,20.0985886 60.8849137,20.6079895 61.2670663,20.9369824 C61.6492189,21.2659754 62.1543857,21.4304695 62.7825818,21.4304695 L62.7825818,21.4304695 Z M80.497622,24.9803922 L79.5710375,22.5607139 L79.4453989,22.5607139 C78.639214,23.5901436 77.8094841,24.3038354 76.9561845,24.7018108 C76.1028848,25.0997862 74.990471,25.2987709 73.6189096,25.2987709 C71.9332502,25.2987709 70.6062059,24.8105951 69.637737,23.8342288 C68.669268,22.8578625 68.1850408,21.4676227 68.1850408,19.6634676 C68.1850408,17.7744111 68.8367845,16.3815181 70.1402913,15.4847469 C71.4437981,14.5879757 73.4094988,14.0918405 76.0374523,13.9963264 L79.084188,13.9008128 L79.084188,13.1207849 C79.084188,11.3166298 78.1733174,10.4145658 76.3515488,10.4145658 C74.9485776,10.4145658 73.2995877,10.8443728 71.4045296,11.7039996 L69.8183424,8.42469884 C71.8390398,7.35281847 74.0795721,6.81688632 76.5400067,6.81688632 C78.8957419,6.81688632 80.7017785,7.33689969 81.9581706,8.37694203 C83.2145627,9.41698438 83.8427493,10.9982495 83.8427493,13.1207849 L83.8427493,24.9803922 L80.497622,24.9803922 Z M79.084188,16.7343834 L77.2310189,16.7980591 C75.8385176,16.8405098 74.8020097,17.0952102 74.1214639,17.562168 C73.4409182,18.0291258 73.1006504,18.7401645 73.1006504,19.6953054 C73.1006504,21.0643408 73.8754139,21.7488482 75.4249642,21.7488482 C76.5347773,21.7488482 77.4220909,21.4251664 78.0869317,20.7777931 C78.7517725,20.1304198 79.084188,19.2708058 79.084188,18.1989255 L79.084188,16.7343834 Z M104.981441,24.9803922 L100.19147,24.9803922 L100.19147,14.585327 C100.19147,13.3011931 99.9663698,12.3381071 99.5161626,11.6960402 C99.0659554,11.0539732 98.3487757,10.7329445 97.3646019,10.7329445 C96.0244503,10.7329445 95.0559959,11.1866297 94.4592096,12.0940136 C93.8624234,13.0013974 93.5640347,14.5057218 93.5640347,16.6070319 L93.5640347,24.9803922 L88.7740637,24.9803922 L88.7740637,7.18302184 L92.4332875,7.18302184 L93.0771852,9.45942967 L93.3441672,9.45942967 C93.8781339,8.59980284 94.6136357,7.94978612 95.5506948,7.50936003 C96.487754,7.06893393 97.5530538,6.84872419 98.7466263,6.84872419 C100.788263,6.84872419 102.337791,7.4085345 103.395254,8.52817192 C104.452717,9.64780935 104.981441,11.2635652 104.981441,13.3754879 L104.981441,24.9803922 Z M115.472263,25.2987709 C113.409686,25.2987709 111.789488,24.4869133 110.61162,22.8631737 C109.433752,21.2394341 108.844827,18.9895803 108.844827,16.1135449 C108.844827,13.1950587 109.444222,10.9213268 110.64303,9.29228085 C111.841837,7.66323493 113.493445,6.84872419 115.597901,6.84872419 C117.807057,6.84872419 119.492692,7.71895065 120.654854,9.45942967 L120.811903,9.45942967 C120.571094,8.13284505 120.450692,6.94954932 120.450692,5.90950697 L120.450692,0.210527927 L125.256367,0.210527927 L125.256367,24.9803922 L121.581439,24.9803922 L120.654854,22.6721465 L120.450692,22.6721465 C119.361818,24.4232382 117.702359,25.2987709 115.472263,25.2987709 L115.472263,25.2987709 Z M117.152679,21.4304695 C118.377661,21.4304695 119.275445,21.0696439 119.846056,20.3479818 C120.416667,19.6263198 120.728143,18.400574 120.780493,16.6707076 L120.780493,16.1453827 C120.780493,14.2351009 120.489957,12.8660861 119.908875,12.0382973 C119.327794,11.2105085 118.382896,10.7966203 117.074155,10.7966203 C116.006221,10.7966203 115.176492,11.2556117 114.58494,12.1736082 C113.993389,13.0916048 113.697618,14.4261289 113.697618,16.1772206 C113.697618,17.9283123 113.996006,19.2416114 114.592793,20.1171572 C115.189579,20.9927031 116.042866,21.4304695 117.152679,21.4304695 L117.152679,21.4304695 Z" id="goStand" fill="#000000"></path>
                    <g id="Rectangles" transform="translate(67.897839, 32.882353)">
                        <rect id="Orange" fill="#CC9E61" x="0.231355599" y="0.156505735" width="15.4505305" height="5.88482745"></rect>
                        <rect id="Brown" fill="#938172" x="20.8320629" y="0.156505735" width="16.0943026" height="5.88482745"></rect>
                        <rect id="Silver" fill="#626266" x="40.788998" y="0.156505735" width="16.7380747" height="5.88482745"></rect>
                    </g>
                </g>
            </g>
        </g>
    </g>
</svg>