<?xml version="1.0" encoding="UTF-8" standalone="no"?>
<svg width="402px" height="402px" viewBox="0 0 402 402" version="1.1" xmlns="http://www.w3.org/2000/svg" xmlns:xlink="http://www.w3.org/1999/xlink">
    <!-- Generator: Sketch 3.7.1 (28215) - http://www.bohemiancoding.com/sketch -->
    <title>Tag Price</title>
    <desc>Created with Sketch.</desc>
    <defs></defs>
    <g id="Icons" stroke="none" stroke-width="1" fill="none" fill-rule="evenodd">
        <g id="Tag-Price" transform="translate(-52.000000, -52.000000)" fill="#626266">
            <g transform="translate(52.000000, 52.000000)" id="Shape">
                <path d="M399.993443,2.62097561 C397.384918,0.0146341463 393.171148,0.0146341463 390.562623,2.62097561 L365.748197,27.4146341 L210.039344,27.4146341 L107.704918,131.601463 L107.704918,174.439024 L141.147541,174.439024 L141.415082,221.219512 L181.278689,221.219512 L181.278689,268 L221.409836,268 L221.409836,301.414634 L276.255738,301.280976 L375.245902,199.032195 L375.245902,36.837561 L400.060328,12.0439024 C402.601967,9.50439024 402.601967,5.22731707 399.993443,2.62097561 L399.993443,2.62097561 Z M361.868852,193.685854 L270.570492,287.915122 L234.786885,288.04878 L234.786885,254.634146 L194.655738,254.634146 L194.655738,207.853659 L154.725246,207.853659 L154.457705,161.073171 L121.081967,161.073171 L121.081967,137.081463 L215.657705,40.7804878 L352.438033,40.7804878 L320.132459,73.0590244 C314.781639,69.5839024 308.427541,67.5121951 301.672131,67.5121951 C283.211803,67.5121951 268.229508,82.4819512 268.229508,100.926829 C268.229508,119.371707 283.211803,134.341463 301.672131,134.341463 C320.132459,134.341463 335.114754,119.371707 335.114754,100.926829 C335.114754,94.1102439 333.041311,87.8282927 329.563279,82.5487805 L361.868852,50.2034146 L361.868852,193.685854 L361.868852,193.685854 Z M321.737705,100.926829 C321.737705,111.953659 312.708197,120.97561 301.672131,120.97561 C290.636066,120.97561 281.606557,111.953659 281.606557,100.926829 C281.606557,89.9 290.636066,80.8780488 301.672131,80.8780488 C304.748852,80.8780488 307.624918,81.6131707 310.300328,82.8829268 L296.990164,96.1819512 C294.381639,98.7882927 294.381639,102.998537 296.990164,105.604878 C298.194098,106.941463 299.933115,107.609756 301.672131,107.609756 C303.411148,107.609756 305.083279,106.941463 306.420984,105.671707 L319.731148,92.3726829 C320.935082,94.9790244 321.737705,97.8526829 321.737705,100.926829 L321.737705,100.926829 Z"></path>
                <path d="M187.967213,294.731707 L147.836066,294.731707 L147.836066,247.95122 L107.704918,247.95122 L107.704918,200.970244 L67.5737705,200.970244 L67.5737705,165.082927 L7.57770492,225.697073 C-1.65245902,234.919512 -1.65245902,249.822439 7.71147541,259.178537 L150.110164,394.775122 C154.52459,399.185854 160.477377,401.658537 166.76459,401.658537 C173.051803,401.658537 179.00459,399.185854 183.485902,394.708293 L248.966557,328.547317 L187.967213,328.547317 L187.967213,294.731707 L187.967213,294.731707 Z M216.928525,341.98 L174.055082,385.352195 C170.175738,389.228293 163.554098,389.295122 159.474098,385.218537 L17.0085246,249.621951 C12.9954098,245.612195 12.9954098,239.129756 17.0085246,235.12 L54.1967213,197.62878 L54.1967213,214.402927 L94.3278689,214.402927 L94.3278689,261.317073 L134.459016,261.317073 L134.459016,308.097561 L174.590164,308.097561 L174.590164,341.98 L216.928525,341.98 L216.928525,341.98 Z"></path>
            </g>
        </g>
    </g>
</svg>